<svg width="93" height="97" viewBox="0 0 93 97" fill="none" xmlns="http://www.w3.org/2000/svg">
<path d="M30.3978 25.8616C28.4877 25.8616 26.5777 25.874 24.6677 25.8591C21.4519 25.8316 18.8053 23.5246 18.5057 20.506C18.2011 17.4375 20.2634 14.6561 23.4343 14.0095C24.1609 13.8621 24.4105 13.6674 24.5578 12.9059C25.1296 9.96221 27.5864 7.93983 30.4127 7.92985C33.2515 7.91986 35.6984 9.91976 36.3101 12.8559C36.4549 13.5476 36.5997 13.8522 37.3912 14.0045C40.6195 14.6262 42.7218 17.4899 42.3622 20.5809C42.0127 23.5995 39.3736 25.8391 36.1278 25.8591C34.2178 25.8715 32.3078 25.8616 30.3978 25.8616Z" fill="#00A5C7"/>
<path d="M17.2899 94.3825C13.4299 94.3076 9.5599 93.9331 5.82475 92.6498C4.59385 92.2253 3.4054 91.716 2.35426 90.9245C0.619014 89.6187 0.609026 88.3029 2.33678 86.9996C3.99713 85.7462 5.93711 85.1245 7.91204 84.6002C9.20287 84.2582 10.5237 84.0584 11.8444 83.8512C12.1615 83.8013 12.2964 83.9511 12.4536 84.1683C13.702 85.8761 14.9629 87.5739 16.2113 89.2817C16.9628 90.3103 17.6769 90.3128 18.4334 89.2842C19.6843 87.5789 20.9476 85.8811 22.1985 84.1758C22.3558 83.9636 22.4881 83.7988 22.8027 83.8462C25.1796 84.2057 27.5316 84.6602 29.7637 85.5865C30.8523 86.0384 31.8984 86.5677 32.7648 87.3891C33.8783 88.4427 33.8933 89.4414 32.7773 90.5026C31.5838 91.6361 30.0883 92.2378 28.5602 92.7447C24.92 93.9456 21.1548 94.3126 17.2899 94.3825Z" fill="#00A5C7"/>
<path d="M75.2572 50.1024C71.3972 50.0275 67.5272 49.6505 63.792 48.3696C62.5611 47.9452 61.3727 47.4358 60.3215 46.6444C58.5863 45.3386 58.5763 44.0228 60.3041 42.7195C61.9644 41.4661 63.9044 40.8444 65.8793 40.3201C67.1701 39.978 68.4909 39.7783 69.8117 39.5711C70.1288 39.5211 70.2636 39.6709 70.4209 39.8881C71.6693 41.5959 72.9302 43.2937 74.1786 45.0015C74.9301 46.0302 75.6441 46.0327 76.4007 45.004C77.6515 43.2987 78.9149 41.6009 80.1658 39.8956C80.3231 39.6834 80.4554 39.5186 80.77 39.5661C83.1469 39.9256 85.4989 40.38 87.731 41.3063C88.8195 41.7582 89.8657 42.2875 90.7321 43.109C91.8456 44.1626 91.8606 45.1613 90.7445 46.2224C89.5511 47.3559 88.0555 47.9577 86.5275 48.4645C82.8872 49.6654 79.1221 50.0325 75.2572 50.1024Z" fill="#00A5C7"/>
<path d="M54.187 65.7946C53.8575 65.7622 53.463 65.7472 53.0735 65.6798C52.2795 65.5425 51.8476 65.0431 51.8351 64.2466C51.8226 63.3952 52.2895 62.8884 53.1184 62.7461C53.9049 62.6113 54.6964 62.6188 55.4853 62.7436C56.3317 62.8784 56.7961 63.4427 56.7862 64.2441C56.7762 65.0481 56.2768 65.5874 55.4404 65.7097C55.0509 65.7672 54.6514 65.7647 54.187 65.7946Z" fill="#F58633"/>
<path d="M70.0386 65.8046C69.5717 65.7796 69.1098 65.7896 68.6604 65.6298C67.9963 65.3926 67.6342 64.9307 67.6317 64.2191C67.6292 63.5051 67.9888 63.0157 68.6629 62.8185C69.5343 62.5638 70.4306 62.6137 71.3169 62.7585C72.1009 62.8859 72.5703 63.3802 72.5903 64.1717C72.6103 65.0081 72.1434 65.5349 71.3144 65.6822C70.8975 65.7571 70.4655 65.7646 70.0386 65.8046Z" fill="#F58633"/>
<path d="M47.4932 91.3139C47.0288 91.284 46.5669 91.3164 46.1175 91.1442C45.4558 90.892 45.1013 90.4351 45.1113 89.7185C45.1213 89.0044 45.4708 88.5176 46.1524 88.3278C47.0263 88.0831 47.9201 88.1181 48.8065 88.2679C49.5955 88.4002 50.0549 88.9146 50.0699 89.6936C50.0873 90.53 49.5955 91.0443 48.774 91.1941C48.3521 91.2715 47.9201 91.2765 47.4932 91.3139Z" fill="#F58633"/>
<path d="M52.5415 43.3113C52.9809 43.3113 53.2156 43.2963 53.4453 43.3138C54.3492 43.3887 55.0083 44.0029 55.0408 44.7894C55.0757 45.6108 54.4141 46.2574 53.4428 46.3398C52.8836 46.3873 52.3218 46.4447 51.76 46.4522C50.8237 46.4647 50.1471 45.9154 50.0722 45.1239C49.9848 44.1951 50.4592 43.5959 51.4654 43.4161C51.8899 43.3437 52.3218 43.3312 52.5415 43.3113Z" fill="#F58633"/>
<path d="M62.2491 62.6487C62.7135 62.6687 63.1729 62.6537 63.6248 62.801C64.3064 63.0232 64.6634 63.4826 64.6709 64.1917C64.6784 64.9432 64.3264 65.45 63.5824 65.6423C62.736 65.862 61.8771 65.8171 61.0257 65.6922C60.1843 65.5699 59.7099 65.0056 59.7174 64.1992C59.7249 63.3877 60.2367 62.8609 61.0656 62.7336C61.4551 62.6736 61.8546 62.6736 62.2491 62.6487Z" fill="#F58633"/>
<path d="M78.0485 65.7571C77.5541 65.7671 77.0597 65.7921 76.5729 65.6323C75.8838 65.4051 75.5467 64.9132 75.5442 64.2241C75.5417 63.5325 75.8688 63.0182 76.5654 62.8135C77.4093 62.5638 78.2732 62.6287 79.1246 62.7336C80.0009 62.8409 80.5252 63.4227 80.5053 64.2766C80.4853 65.1379 79.8985 65.6398 79.0397 65.7521C78.7151 65.7946 78.378 65.7571 78.0485 65.7571Z" fill="#F58633"/>
<path d="M55.5602 88.1654C56.0196 88.1729 56.479 88.103 56.9359 88.2727C57.6524 88.5374 58.012 89.0717 57.962 89.7858C57.9121 90.4949 57.5251 91.0117 56.7461 91.144C55.9871 91.2739 55.2281 91.2763 54.4741 91.1939C53.5328 91.0916 52.9361 90.4574 52.9985 89.6485C53.0684 88.7621 53.6252 88.2927 54.4716 88.1729C54.8261 88.1229 55.1956 88.1654 55.5602 88.1654Z" fill="#F58633"/>
<path d="M78.7228 91.1416C77.1922 91.1441 76.2784 90.0754 76.8802 88.9219C77.4794 87.7709 78.6628 88.1479 79.6216 87.9782C80.3432 87.8483 81.0148 88.0106 81.4467 88.6822C82.006 89.5536 81.5291 90.6996 80.4905 90.9193C79.9112 91.0417 79.312 91.0691 78.7228 91.1416Z" fill="#F58633"/>
<path d="M39.606 91.339C39.1791 91.3016 38.7396 91.3241 38.3327 91.2167C37.5737 91.017 37.1342 90.4627 37.1917 89.6862C37.2491 88.9347 37.6785 88.3754 38.5025 88.3155C39.2265 88.263 39.9556 88.2356 40.6796 88.278C41.541 88.328 42.0928 88.7849 42.1377 89.7012C42.1777 90.5501 41.6209 91.1718 40.6996 91.2841C40.3426 91.3291 39.973 91.2916 39.6085 91.2916C39.6085 91.3091 39.6085 91.3241 39.606 91.339Z" fill="#F58633"/>
<path d="M41.6456 55.3307C41.6456 54.9337 41.6206 54.6366 41.6506 54.342C41.7355 53.5006 42.2523 52.9812 43.0538 52.9338C43.8577 52.8864 44.457 53.3408 44.6018 54.1697C44.7291 54.9137 44.8115 55.6777 44.8015 56.4318C44.7915 57.2082 44.3496 57.75 43.5481 57.8524C42.7292 57.9573 42.115 57.6202 41.8928 56.7913C41.758 56.2844 41.7155 55.7551 41.6456 55.3307Z" fill="#F58633"/>
<path d="M90.9419 74.9351C89.5886 74.8527 89.2316 74.1137 88.9719 73.2948C88.6748 72.356 87.9532 71.4022 88.922 70.4535C89.6435 69.7469 90.792 69.9416 91.2689 70.8829C91.611 71.557 91.8831 72.2761 92.0854 73.0051C92.35 73.9589 91.5486 74.9501 90.9419 74.9351Z" fill="#F58633"/>
<path d="M88.7121 86.1181C88.6522 86.4851 88.5499 86.8821 88.2403 87.1518C87.6685 87.6511 87.0918 88.1554 86.4676 88.5874C85.761 89.0743 85.0494 88.897 84.5176 88.2928C83.9658 87.6636 83.9833 86.9171 84.5775 86.3278C85.1618 85.7486 85.8059 85.2068 86.505 84.7773C87.4388 84.2031 88.7047 84.9921 88.7121 86.1181Z" fill="#F58633"/>
<path d="M49.1409 62.5789C49.1509 63.8672 48.0523 64.5688 46.9987 64.0569C46.2497 63.6924 45.6105 63.1581 45.0437 62.5614C44.4845 61.9721 44.4844 61.0359 45.0188 60.504C45.6055 59.9173 46.2996 59.8324 46.9887 60.3068C47.558 60.6988 48.0873 61.1507 48.6216 61.5926C48.9686 61.8773 49.1833 62.2393 49.1409 62.5789Z" fill="#F58633"/>
<path d="M92.3497 79.714C92.2024 80.2158 92.0326 81.0647 91.7006 81.8437C91.4184 82.5004 90.8167 82.8149 90.0652 82.6202C89.2962 82.4205 88.8718 81.9186 88.9217 81.1122C88.9716 80.2857 89.2313 79.4993 89.5234 78.7278C89.813 77.9662 90.4222 77.6516 91.1763 77.8039C91.9752 77.9637 92.4122 78.5155 92.3497 79.714Z" fill="#F58633"/>
<path d="M44.9712 50.4096C43.7953 50.3696 43.1161 49.1362 43.6754 48.1375C44.0974 47.386 44.6741 46.7393 45.3657 46.22C46.0473 45.7057 46.7514 45.7806 47.3307 46.3798C47.875 46.9441 47.9274 47.6457 47.4605 48.2698C46.9861 48.899 46.4094 49.4508 45.8776 50.0375C45.6104 50.3297 45.2109 50.2772 44.9712 50.4096Z" fill="#F58633"/>
<path d="M63.3351 91.1442C63.0055 91.1442 62.6734 91.1667 62.3439 91.1392C61.505 91.0668 60.8932 90.4476 60.8808 89.6811C60.8658 88.9396 61.4825 88.238 62.3014 88.1631C62.9581 88.1031 63.6222 88.1181 64.2838 88.1431C65.2576 88.1805 65.8718 88.8022 65.8593 89.6811C65.8468 90.5275 65.2726 91.0818 64.3288 91.1442C63.9992 91.1642 63.6671 91.1467 63.3376 91.1467C63.3351 91.1467 63.3351 91.1442 63.3351 91.1442Z" fill="#F58633"/>
<path d="M87.7609 66.9731C87.7435 68.0916 86.595 68.7857 85.5763 68.2414C84.9121 67.8869 84.2855 67.445 83.6937 66.9781C83.107 66.5162 83.0046 65.8645 83.3092 65.2004C83.6038 64.5587 84.1881 64.2217 84.8472 64.3964C85.9433 64.6886 86.8496 65.3527 87.5887 66.2191C87.7684 66.4313 87.7709 66.7059 87.7609 66.9731Z" fill="#F58633"/>
<path d="M71.2697 91.1168C70.9052 91.1168 70.5382 91.1517 70.1812 91.1093C69.3447 91.0119 68.8754 90.5201 68.8279 89.6812C68.783 88.8672 69.3547 88.2031 70.1787 88.1482C70.8703 88.1007 71.5669 88.1107 72.261 88.1357C73.1498 88.1656 73.8014 88.8148 73.799 89.6187C73.7965 90.4302 73.1548 91.0644 72.2634 91.1168C71.9339 91.1368 71.6018 91.1193 71.2722 91.1193C71.2697 91.1193 71.2697 91.1193 71.2697 91.1168Z" fill="#F58633"/>
<path d="M18.8628 44.3374C19.5594 44.4722 20.2635 44.5696 20.9501 44.7444C27.8911 46.5071 32.3278 50.8564 34.0281 57.8024C35.269 62.8683 34.0556 67.5697 31.3216 71.9341C29.2568 75.2273 26.7726 78.2084 24.4081 81.2794C24.121 81.6514 23.8314 82.0235 23.5068 82.4404C24.3557 82.6102 25.1571 82.7575 25.9536 82.9348C27.9785 83.3917 29.9359 84.0309 31.7111 85.1369C32.4477 85.5938 33.1093 86.1356 33.6411 86.8272C34.7547 88.2729 34.7497 90.0006 33.6137 91.4312C32.5625 92.7545 31.1269 93.531 29.6064 94.1552C27.3044 95.099 24.89 95.5983 22.4282 95.9029C19.6044 96.255 16.773 96.3174 13.9417 96.0902C10.234 95.7906 6.59625 95.1689 3.26557 93.3737C2.35426 92.8819 1.53282 92.2677 0.883667 91.4462C-0.269836 89.9931 -0.279823 88.2629 0.861196 86.8048C1.84991 85.5439 3.19566 84.7824 4.6313 84.1707C6.57128 83.3417 8.60864 82.8374 10.6934 82.5253C10.7733 82.5128 10.8507 82.4879 11.0005 82.4504C10.2016 81.4292 9.43506 80.458 8.67605 79.4793C6.57628 76.7803 4.42407 74.1187 2.68633 71.1576C0.763822 67.8793 -0.214907 64.3564 0.0397623 60.5488C0.356851 55.81 2.29683 51.8277 5.84472 48.6618C8.51875 46.2749 11.6672 44.8917 15.225 44.4473C15.3049 44.4373 15.3973 44.4547 15.4198 44.3399C16.5683 44.3374 17.7143 44.3374 18.8628 44.3374ZM2.04965 61.8172C2.07462 63.3552 2.31431 65.048 2.87358 66.6884C3.75244 69.27 5.21804 71.5246 6.82595 73.6918C10.1716 78.2009 13.7819 82.5053 17.0402 87.0794C17.2774 87.414 17.3523 87.2042 17.4821 87.022C19.6393 84.0458 21.9039 81.1521 24.1659 78.2559C26.1683 75.6942 28.2057 73.1575 29.866 70.3486C31.9833 66.7658 32.937 62.9482 32.1581 58.7861C30.5901 50.412 22.4382 44.9341 14.1415 46.6844C7.0981 48.1749 2.0122 54.4543 2.04965 61.8172ZM17.2075 94.1852C20.8078 94.1228 24.3182 93.7782 27.7138 92.6572C29.1095 92.1978 30.4702 91.6485 31.5738 90.6398C32.7223 89.5911 32.7073 88.6424 31.5688 87.5987C30.9546 87.0345 30.2405 86.625 29.489 86.2729C27.2095 85.2043 24.7726 84.7275 22.3034 84.3554C22.0212 84.313 21.9189 84.4853 21.789 84.6625C20.6205 86.2505 19.4446 87.8359 18.2786 89.4239C17.572 90.3876 16.9054 90.3876 16.2063 89.4313C15.0428 87.8384 13.8668 86.2555 12.7033 84.665C12.5585 84.4653 12.4362 84.318 12.1366 84.3654C10.9082 84.5602 9.67475 84.7474 8.47131 85.0645C6.61123 85.5539 4.7886 86.1431 3.23062 87.3266C1.67514 88.5075 1.68013 89.7409 3.23811 90.9294C4.22433 91.6809 5.34787 92.1678 6.51386 92.5673C9.99683 93.7632 13.6071 94.1153 17.2075 94.1852Z" fill="#7A7A7A"/>
<path d="M10.1517 61.5201C10.1567 57.6052 13.3301 54.4643 17.2825 54.4692C21.1974 54.4742 24.3408 57.6501 24.3358 61.6C24.3308 65.5149 21.155 68.6583 17.2051 68.6533C13.2877 68.6458 10.1467 65.47 10.1517 61.5201ZM17.2325 56.4966C14.4736 56.5066 12.1791 58.8036 12.1816 61.5575C12.1816 64.3165 14.4711 66.6135 17.2276 66.6235C19.9965 66.6334 22.3259 64.299 22.3035 61.5376C22.281 58.7712 19.9815 56.4866 17.2325 56.4966Z" fill="#7A7A7A"/>
<path d="M30.4128 61.1506C30.4128 61.3029 30.4153 61.4552 30.4128 61.6075C30.3978 62.2466 29.9759 62.6836 29.3791 62.6711C28.8099 62.6611 28.3954 62.2342 28.3879 61.6175C28.353 59.3404 27.7512 57.2356 26.4704 55.3406C25.1371 53.3682 23.3445 51.9725 21.1199 51.1286C20.4457 50.8739 20.1636 50.3746 20.3608 49.8103C20.5706 49.1986 21.1224 48.9564 21.7915 49.2036C24.7826 50.3096 27.0746 52.2546 28.675 55.0085C29.7736 56.9011 30.3379 58.9584 30.4128 61.1506Z" fill="#7A7A7A"/>
<path d="M17.3448 50.417C16.7606 50.422 16.3262 49.9875 16.3262 49.4008C16.3287 48.8141 16.7656 48.3821 17.3498 48.3896C17.9016 48.3971 18.3436 48.8315 18.3535 49.3808C18.366 49.9526 17.9166 50.412 17.3448 50.417Z" fill="#7A7A7A"/>
<path d="M76.8998 0C77.5964 0.134825 78.3005 0.232199 78.9871 0.406972C85.9281 2.16968 90.3648 6.51904 92.0651 13.465C93.306 18.5309 92.0926 23.2323 89.3586 27.5967C87.2938 30.8899 84.8095 33.871 82.4451 36.942C82.158 37.314 81.8684 37.6861 81.5438 38.103C82.3927 38.2728 83.1941 38.4201 83.9906 38.5974C86.0155 39.0543 87.9729 39.6935 89.7481 40.7995C90.4847 41.2564 91.1463 41.7982 91.6781 42.4898C92.7917 43.9354 92.7867 45.6632 91.6507 47.0938C90.5995 48.4171 89.1639 49.1936 87.6434 49.8178C85.3413 50.7616 82.927 51.2609 80.4652 51.5655C77.6413 51.9176 74.81 51.98 71.9787 51.7528C68.271 51.4532 64.6332 50.8315 61.3026 49.0363C60.3912 48.5445 59.5698 47.9303 58.9207 47.1088C57.7672 45.6557 57.7572 43.9255 58.8982 42.4674C59.8869 41.2065 61.2327 40.445 62.6683 39.8333C64.6083 39.0044 66.6456 38.5 68.7304 38.1879C68.8103 38.1754 68.8877 38.1505 69.0375 38.113C68.2386 37.0918 67.4721 36.1206 66.713 35.1419C64.6133 32.4429 62.4611 29.7813 60.7233 26.8202C58.8008 23.5419 57.8221 20.019 58.0767 16.2114C58.3938 11.4726 60.3338 7.49027 63.8817 4.32439C66.5557 1.93748 69.7042 0.55428 73.262 0.109857C73.3419 0.0998705 73.4343 0.117348 73.4568 0.00249682C74.6053 5.72021e-08 75.7513 0 76.8998 0ZM60.0866 17.4798C60.1116 19.0178 60.3513 20.7106 60.9106 22.351C61.7894 24.9326 63.255 27.1872 64.8629 29.3544C68.2086 33.8635 71.8189 38.1679 75.0772 42.742C75.3144 43.0766 75.3893 42.8668 75.5191 42.6846C77.6763 39.7084 79.9409 36.8147 82.2029 33.9185C84.2053 31.3568 86.2427 28.8201 87.903 26.0112C90.0203 22.4284 90.974 18.6108 90.195 14.4487C88.6271 6.07461 80.4752 0.596725 72.1784 2.34695C65.1351 3.83502 60.0492 10.1169 60.0866 17.4798ZM75.2445 49.8453C78.8448 49.7829 82.3552 49.4383 85.7508 48.3173C87.1465 47.8579 88.5072 47.3086 89.6108 46.2999C90.7593 45.2512 90.7443 44.3025 89.6058 43.2588C88.9916 42.6946 88.2775 42.2851 87.526 41.933C85.2465 40.8644 82.8096 40.3876 80.3403 40.0155C80.0582 39.9731 79.9558 40.1454 79.826 40.3226C78.6575 41.9106 77.4816 43.496 76.3156 45.084C75.609 46.0477 74.9423 46.0477 74.2433 45.0914C73.0798 43.4985 71.9038 41.9156 70.7403 40.3251C70.5955 40.1254 70.4732 39.9781 70.1735 40.0255C68.9451 40.2203 67.7117 40.4075 66.5083 40.7246C64.6482 41.214 62.8256 41.8032 61.2676 42.9867C59.7121 44.1676 59.7171 45.401 61.2751 46.5895C62.2613 47.341 63.3849 47.8279 64.5508 48.2274C68.0363 49.4233 71.6441 49.7779 75.2445 49.8453Z" fill="#7A7A7A"/>
<path d="M68.1887 17.1801C68.1937 13.2652 71.3671 10.1243 75.3195 10.1293C79.2344 10.1343 82.3778 13.3101 82.3728 17.26C82.3678 21.1749 79.1919 24.3184 75.2421 24.3134C71.3247 24.3059 68.1837 21.13 68.1887 17.1801ZM75.2695 12.1566C72.5106 12.1666 70.2161 14.4636 70.2186 17.2176C70.2186 19.9765 72.5081 22.2735 75.2645 22.2835C78.0334 22.2935 80.3629 19.959 80.3405 17.1976C80.318 14.4312 78.0185 12.1467 75.2695 12.1566Z" fill="#7A7A7A"/>
<path d="M88.4498 16.8106C88.4498 16.9629 88.4523 17.1152 88.4498 17.2675C88.4348 17.9067 88.0128 18.3436 87.4161 18.3311C86.8469 18.3211 86.4324 17.8942 86.4249 17.2775C86.39 15.0004 85.7882 12.8957 84.5074 11.0006C83.1741 9.0282 81.3815 7.63251 79.1568 6.78861C78.4827 6.53394 78.2006 6.03459 78.3978 5.47032C78.6076 4.85861 79.1593 4.61643 79.8285 4.86361C82.8196 5.96967 85.1116 7.91465 86.712 10.6686C87.8106 12.5611 88.3749 14.6184 88.4498 16.8106Z" fill="#7A7A7A"/>
<path d="M75.3817 6.07715C74.7975 6.08214 74.363 5.6477 74.363 5.06097C74.3655 4.47423 74.8025 4.04229 75.3867 4.04978C75.9385 4.05727 76.3804 4.49171 76.3904 5.04099C76.4029 5.61275 75.9535 6.07215 75.3817 6.07715Z" fill="#7A7A7A"/>
</svg>
