<svg width="160" height="50" viewBox="0 0 160 50" fill="none" xmlns="http://www.w3.org/2000/svg">
<rect width="160" height="50" rx="5" fill="white"/>
<path d="M44.2803 20H46.4746L43.043 10.1357H40.6162L37.1914 20H39.3105L40.0625 17.6074H43.5283L44.2803 20ZM41.7715 12.0225H41.8193L43.084 16.0625H40.5068L41.7715 12.0225ZM51.6904 12.3848C50.6309 12.3848 49.749 12.9111 49.3525 13.7588H49.3115V12.4736H47.3428V22.3652H49.3389V18.7354H49.3799C49.79 19.5898 50.6309 20.0889 51.7178 20.0889C53.6045 20.0889 54.7803 18.626 54.7803 16.2334C54.7803 13.8408 53.5977 12.3848 51.6904 12.3848ZM51.0273 18.4756C50.0088 18.4756 49.332 17.5938 49.332 16.2402C49.332 14.8936 50.0088 13.998 51.0273 13.998C52.0596 13.998 52.7363 14.8799 52.7363 16.2334C52.7363 17.6006 52.0596 18.4756 51.0273 18.4756ZM60.1943 12.3848C59.1348 12.3848 58.2529 12.9111 57.8564 13.7588H57.8154V12.4736H55.8467V22.3652H57.8428V18.7354H57.8838C58.2939 19.5898 59.1348 20.0889 60.2217 20.0889C62.1084 20.0889 63.2842 18.626 63.2842 16.2334C63.2842 13.8408 62.1016 12.3848 60.1943 12.3848ZM59.5312 18.4756C58.5127 18.4756 57.8359 17.5938 57.8359 16.2402C57.8359 14.8936 58.5127 13.998 59.5312 13.998C60.5635 13.998 61.2402 14.8799 61.2402 16.2334C61.2402 17.6006 60.5635 18.4756 59.5312 18.4756ZM67.1328 17.1904C67.1943 19.043 68.7051 20.1709 71.0771 20.1709C73.5244 20.1709 75.0762 18.9609 75.0762 17.0469C75.0762 15.543 74.2148 14.6953 72.2393 14.2715L71.043 14.0186C69.9082 13.7588 69.4297 13.417 69.4297 12.8086C69.4297 12.0771 70.1133 11.5918 71.1318 11.5918C72.1641 11.5918 72.8955 12.0977 72.9639 12.9316H74.8984C74.8643 11.1475 73.4219 9.96484 71.125 9.96484C68.9238 9.96484 67.3516 11.168 67.3516 12.9863C67.3516 14.4287 68.2471 15.3516 70.0654 15.7412L71.3506 16.0215C72.54 16.2881 73.0117 16.6436 73.0117 17.2861C73.0117 18.0107 72.2598 18.5371 71.1592 18.5371C70.0654 18.5371 69.2178 18.0039 69.1221 17.1904H67.1328ZM76.7373 10.7988V12.4736H75.7188V13.9844H76.7373V17.9697C76.7373 19.4395 77.4209 20.0273 79.1641 20.0273C79.5674 20.0273 79.9229 19.9863 80.1279 19.9453V18.4688C80.0049 18.4893 79.8066 18.5029 79.6289 18.5029C79.0205 18.5029 78.7334 18.2227 78.7334 17.6416V13.9844H80.1279V12.4736H78.7334V10.7988H76.7373ZM84.5986 20.1299C86.8818 20.1299 88.3105 18.6738 88.3105 16.2334C88.3105 13.8203 86.8682 12.3438 84.5986 12.3438C82.3359 12.3438 80.8867 13.8271 80.8867 16.2334C80.8867 18.667 82.3154 20.1299 84.5986 20.1299ZM84.5986 18.5918C83.5459 18.5918 82.9102 17.7305 82.9102 16.2334C82.9102 14.7568 83.5459 13.875 84.5986 13.875C85.6445 13.875 86.2803 14.75 86.2803 16.2334C86.2803 17.7305 85.6514 18.5918 84.5986 18.5918ZM89.3838 20H91.3799V15.7891C91.3799 14.7363 91.9746 14.1074 92.9863 14.1074C93.2324 14.1074 93.54 14.1553 93.7041 14.2305V12.46C93.5605 12.4121 93.3418 12.3848 93.1436 12.3848C92.2549 12.3848 91.6055 12.8906 91.3525 13.8203H91.3115V12.4736H89.3838V20ZM97.6895 13.834C98.6123 13.834 99.2549 14.4766 99.2891 15.4609H96.042C96.1104 14.4971 96.7803 13.834 97.6895 13.834ZM99.3164 17.7031C99.125 18.2842 98.5303 18.6396 97.7783 18.6396C96.7256 18.6396 96.0215 17.9082 96.0215 16.8213V16.6982H101.217V16.083C101.217 13.793 99.8359 12.3438 97.6689 12.3438C95.4609 12.3438 94.0527 13.875 94.0527 16.2676C94.0527 18.6602 95.4541 20.1299 97.7441 20.1299C99.5762 20.1299 100.937 19.1592 101.155 17.7031H99.3164Z" fill="#00A5C7"/>
<path d="M46.6777 29.1357H45.249L41.8447 37.3662H41.79L38.3857 29.1357H36.957V39H38.1055V31.3984H38.1533L41.2979 38.9316H42.3369L45.4814 31.3984H45.5293V39H46.6777V29.1357ZM51.4766 39.0684C53.5479 39.0684 54.874 37.5986 54.874 35.3154C54.874 33.0254 53.5479 31.5625 51.4766 31.5625C49.4053 31.5625 48.0791 33.0254 48.0791 35.3154C48.0791 37.5986 49.4053 39.0684 51.4766 39.0684ZM51.4766 38.0088C50.1094 38.0088 49.2891 37.0039 49.2891 35.3154C49.2891 33.627 50.1025 32.6221 51.4766 32.6221C52.8506 32.6221 53.6641 33.6201 53.6641 35.3154C53.6641 37.0039 52.8506 38.0088 51.4766 38.0088ZM59.748 39.0684C61.6279 39.0684 62.8926 37.5713 62.8926 35.3154C62.8926 33.0664 61.6279 31.5625 59.7754 31.5625C58.7295 31.5625 57.875 32.0205 57.4102 32.8271H57.3828V28.7051H56.1934V39H57.3213V37.7559H57.3486C57.8271 38.6035 58.6748 39.0684 59.748 39.0684ZM59.5361 32.6221C60.8281 32.6221 61.6758 33.6816 61.6758 35.3154C61.6758 36.9561 60.8281 38.0088 59.5361 38.0088C58.251 38.0088 57.376 36.915 57.376 35.3154C57.376 33.7227 58.251 32.6221 59.5361 32.6221ZM64.2188 39H65.4082V31.6309H64.2188V39ZM64.8135 30.4414C65.2305 30.4414 65.5654 30.0996 65.5654 29.6895C65.5654 29.2725 65.2305 28.9375 64.8135 28.9375C64.4033 28.9375 64.0615 29.2725 64.0615 29.6895C64.0615 30.0996 64.4033 30.4414 64.8135 30.4414ZM67.1582 39H68.3477V28.7051H67.1582V39ZM73.7686 29.9697V31.6309H72.7432V32.6152H73.7686V37.0859C73.7686 38.501 74.2881 39.0547 75.6211 39.0547C75.9014 39.0547 76.2432 39.0273 76.3867 38.9932V37.9883C76.3047 38.002 76.0176 38.0225 75.874 38.0225C75.2451 38.0225 74.958 37.7148 74.958 37.0381V32.6152H76.3936V31.6309H74.958V29.9697H73.7686ZM84.1455 35.3154C84.1455 33.0527 82.7988 31.5625 80.7822 31.5625C79.2441 31.5625 78.0684 32.3965 77.8359 33.4287C78.2666 33.4287 78.9434 33.4287 79.1006 33.4287C79.2646 32.9502 79.9688 32.6221 80.7754 32.6221C81.8828 32.6221 82.7236 33.415 82.8877 34.6797H77.3848C77.3574 34.8848 77.3506 35.0967 77.3506 35.3154C77.3506 37.5986 78.6768 39.0684 80.748 39.0684C82.8193 39.0684 84.1455 37.5986 84.1455 35.3154ZM80.748 38.0088C79.4766 38.0088 78.6836 37.1406 78.5742 35.6641H82.9219C82.8125 37.1406 82.0264 38.0088 80.748 38.0088ZM85.7861 29.9697V31.6309H84.7607V32.6152H85.7861V37.0859C85.7861 38.501 86.3057 39.0547 87.6387 39.0547C87.9189 39.0547 88.2607 39.0273 88.4043 38.9932V37.9883C88.3223 38.002 88.0352 38.0225 87.8916 38.0225C87.2627 38.0225 86.9756 37.7148 86.9756 37.0381V32.6152H88.4111V31.6309H86.9756V29.9697H85.7861ZM93.3535 39.0684C95.2334 39.0684 96.498 37.5713 96.498 35.3154C96.498 33.0664 95.2334 31.5625 93.3809 31.5625C92.335 31.5625 91.4805 32.0205 91.0156 32.8271H90.9883V28.7051H89.7988V39H90.9268V37.7559H90.9541C91.4326 38.6035 92.2803 39.0684 93.3535 39.0684ZM93.1416 32.6221C94.4336 32.6221 95.2812 33.6816 95.2812 35.3154C95.2812 36.9561 94.4336 38.0088 93.1416 38.0088C91.8564 38.0088 90.9814 36.915 90.9814 35.3154C90.9814 33.7227 91.8564 32.6221 93.1416 32.6221ZM97.8242 39H99.0137V31.6309H97.8242V39ZM98.4189 30.4414C98.8359 30.4414 99.1709 30.0996 99.1709 29.6895C99.1709 29.2725 98.8359 28.9375 98.4189 28.9375C98.0088 28.9375 97.667 29.2725 97.667 29.6895C97.667 30.0996 98.0088 30.4414 98.4189 30.4414ZM103.478 31.5625C101.598 31.5625 100.333 33.0596 100.333 35.3154C100.333 37.5645 101.598 39.0684 103.45 39.0684C104.489 39.0684 105.351 38.6104 105.815 37.8037H105.843V41.4609H107.032V31.6309H105.897V32.8271H105.877C105.405 32.0137 104.544 31.5625 103.478 31.5625ZM103.676 38.0088C102.391 38.0088 101.55 36.9561 101.55 35.3154C101.55 33.6816 102.391 32.6221 103.676 32.6221C104.961 32.6221 105.843 33.7227 105.843 35.3154C105.843 36.915 104.961 38.0088 103.676 38.0088ZM108.721 39H109.91V31.6309H108.721V39ZM109.315 30.4414C109.732 30.4414 110.067 30.0996 110.067 29.6895C110.067 29.2725 109.732 28.9375 109.315 28.9375C108.905 28.9375 108.563 29.2725 108.563 29.6895C108.563 30.0996 108.905 30.4414 109.315 30.4414ZM115.57 41.6729C116.876 41.6729 117.464 41.1602 118.093 39.4512L120.978 31.6309H119.727L117.662 37.79H117.635L115.57 31.6309H114.306L117.033 39.0068L116.89 39.4443C116.589 40.333 116.22 40.6611 115.536 40.6611C115.379 40.6611 115.188 40.6475 115.051 40.6201V41.625C115.194 41.6523 115.42 41.6729 115.57 41.6729ZM128.101 31.6309H126.911V35.9102C126.911 37.1748 126.111 38.0088 124.901 38.0088C123.746 38.0088 123.11 37.3594 123.11 36.1494V31.6309H121.921V36.3545C121.921 38.0293 122.926 39.0684 124.539 39.0684C125.667 39.0684 126.494 38.6309 126.952 37.7832H126.979V39H128.101V31.6309ZM123.664 30.3799C124.088 30.3799 124.43 30.0312 124.43 29.6143C124.43 29.1904 124.088 28.8486 123.664 28.8486C123.247 28.8486 122.898 29.1904 122.898 29.6143C122.898 30.0312 123.247 30.3799 123.664 30.3799ZM126.357 30.3799C126.781 30.3799 127.123 30.0312 127.123 29.6143C127.123 29.1904 126.781 28.8486 126.357 28.8486C125.94 28.8486 125.592 29.1904 125.592 29.6143C125.592 30.0312 125.94 30.3799 126.357 30.3799ZM130.979 34.9258V28.7051H129.789V39H130.979V36.2041L131.676 35.5479L134.444 39H135.825L132.51 34.8164L135.729 31.6309H134.28L130.979 34.9258ZM136.803 39H137.992V28.7051H136.803V39ZM146.106 35.3154C146.106 33.0527 144.76 31.5625 142.743 31.5625C141.205 31.5625 140.029 32.3965 139.797 33.4287C140.228 33.4287 140.904 33.4287 141.062 33.4287C141.226 32.9502 141.93 32.6221 142.736 32.6221C143.844 32.6221 144.685 33.415 144.849 34.6797H139.346C139.318 34.8848 139.312 35.0967 139.312 35.3154C139.312 37.5986 140.638 39.0684 142.709 39.0684C144.78 39.0684 146.106 37.5986 146.106 35.3154ZM142.709 38.0088C141.438 38.0088 140.645 37.1406 140.535 35.6641H144.883C144.773 37.1406 143.987 38.0088 142.709 38.0088Z" fill="#00A5C7"/>
<path d="M24.5439 12.0095C24.5033 11.9642 23.0427 12.0274 21.7717 13.4069C20.5007 14.7852 20.6963 16.3662 20.7249 16.4068C20.7535 16.4473 22.5372 16.5105 23.6759 14.9069C24.8145 13.3032 24.5844 12.056 24.5439 12.0095ZM28.4952 25.9989C28.4379 25.8845 25.7231 24.5276 25.9758 21.9188C26.2286 19.3089 27.9729 18.5935 28.0004 18.516C28.0278 18.4385 27.2886 17.5741 26.5052 17.1365C25.9301 16.828 25.2935 16.6512 24.6416 16.619C24.5129 16.6154 24.0657 16.5057 23.1465 16.7573C22.5408 16.9231 21.1756 17.4596 20.8 17.4811C20.4232 17.5025 19.3025 16.8587 18.097 16.6882C17.3256 16.5391 16.5077 16.8444 15.9223 17.0793C15.338 17.3129 14.2268 17.9783 13.4494 19.7465C12.672 21.5135 13.0786 24.313 13.3695 25.1834C13.6605 26.0526 14.1147 27.4774 14.8873 28.5171C15.5741 29.6903 16.485 30.5047 16.8654 30.7813C17.2457 31.0579 18.3188 31.2415 19.0628 30.8612C19.6614 30.4939 20.7416 30.2829 21.1684 30.2984C21.5941 30.3139 22.4335 30.482 23.2931 30.9411C23.9739 31.1759 24.6178 31.0782 25.2628 30.8159C25.9079 30.5524 26.8414 29.5532 27.9312 27.5275C28.3449 26.5855 28.5333 26.0764 28.4952 25.9989Z" fill="#00A5C7"/>
<path d="M24.5439 12.0095C24.5033 11.9642 23.0427 12.0274 21.7717 13.4069C20.5007 14.7852 20.6963 16.3662 20.7249 16.4068C20.7535 16.4473 22.5372 16.5105 23.6759 14.9069C24.8145 13.3032 24.5844 12.056 24.5439 12.0095ZM28.4952 25.9989C28.4379 25.8845 25.7231 24.5276 25.9758 21.9188C26.2286 19.3089 27.9729 18.5935 28.0004 18.516C28.0278 18.4385 27.2886 17.5741 26.5052 17.1365C25.9301 16.828 25.2935 16.6512 24.6416 16.619C24.5129 16.6154 24.0657 16.5057 23.1465 16.7573C22.5408 16.9231 21.1756 17.4596 20.8 17.4811C20.4232 17.5025 19.3025 16.8587 18.097 16.6882C17.3256 16.5391 16.5077 16.8444 15.9223 17.0793C15.338 17.3129 14.2268 17.9783 13.4494 19.7465C12.672 21.5135 13.0786 24.313 13.3695 25.1834C13.6605 26.0526 14.1147 27.4774 14.8873 28.5171C15.5741 29.6903 16.485 30.5047 16.8654 30.7813C17.2457 31.0579 18.3188 31.2415 19.0628 30.8612C19.6614 30.4939 20.7416 30.2829 21.1684 30.2984C21.5941 30.3139 22.4335 30.482 23.2931 30.9411C23.9739 31.1759 24.6178 31.0782 25.2628 30.8159C25.9079 30.5524 26.8414 29.5532 27.9312 27.5275C28.3449 26.5855 28.5333 26.0764 28.4952 25.9989Z" fill="#00A5C7"/>
</svg>
