<svg width="25" height="25" viewBox="0 0 25 25" fill="none" xmlns="http://www.w3.org/2000/svg">
<circle cx="12.5" cy="12.5" r="12" stroke="#999999"/>
<path d="M17.413 7.74376L11.1015 15.7292L8.57682 13.2758C8.47007 13.1546 8.33869 13.0563 8.19095 12.9868C8.0432 12.9173 7.88228 12.8783 7.71827 12.8721C7.55427 12.866 7.39072 12.8928 7.23791 12.951C7.08509 13.0092 6.9463 13.0974 6.83024 13.2102C6.71419 13.323 6.62337 13.4579 6.5635 13.6064C6.50363 13.7549 6.476 13.9138 6.48233 14.0732C6.48867 14.2326 6.52884 14.389 6.60032 14.5326C6.67179 14.6762 6.77304 14.8038 6.8977 14.9076L10.2679 18.1827C10.4897 18.3965 10.789 18.517 11.1015 18.5183C11.2582 18.5192 11.4135 18.49 11.5586 18.4324C11.7037 18.3748 11.8357 18.29 11.947 18.1827L19.0922 9.38711C19.2038 9.27952 19.2924 9.15153 19.3528 9.0105C19.4133 8.86947 19.4444 8.71821 19.4444 8.56543C19.4444 8.41266 19.4133 8.26139 19.3528 8.12037C19.2924 7.97934 19.2038 7.85134 19.0922 7.74376C18.869 7.52821 18.5672 7.40723 18.2526 7.40723C17.938 7.40723 17.6362 7.52821 17.413 7.74376Z" fill="#00A5C7"/>
</svg>
