<svg width="27" height="22" viewBox="0 0 27 22" fill="none" xmlns="http://www.w3.org/2000/svg">
<path d="M24.7081 18.8485C27.2537 16.0325 26.9974 12.4163 26.9893 12.375V1.375C26.9893 1.01033 26.8472 0.660591 26.5942 0.402728C26.3412 0.144866 25.9981 0 25.6403 0H17.5463C16.0584 0 14.8484 1.23337 14.8484 2.75V12.375C14.8484 12.7397 14.9905 13.0894 15.2435 13.3473C15.4965 13.6051 15.8396 13.75 16.1973 13.75H20.3495C20.321 14.4298 20.1218 15.0907 19.7708 15.6695C19.0855 16.7709 17.7946 17.523 15.9316 17.9025L14.8484 18.1225V22H16.1973C19.9516 22 22.8155 20.9399 24.7081 18.8485ZM9.85978 18.8485C12.4067 16.0325 12.149 12.4163 12.1409 12.375V1.375C12.1409 1.01033 11.9988 0.660591 11.7458 0.402728C11.4928 0.144866 11.1497 0 10.7919 0H2.69798C1.21005 0 0 1.23337 0 2.75V12.375C0 12.7397 0.142125 13.0894 0.395111 13.3473C0.648096 13.6051 0.991217 13.75 1.34899 13.75H5.50119C5.47269 14.4298 5.27342 15.0907 4.92247 15.6695C4.23718 16.7709 2.9462 17.523 1.08324 17.9025L0 18.1225V22H1.34899C5.10324 22 7.96715 20.9399 9.85978 18.8485Z" fill="#00A5C7"/>
</svg>
