<svg width="24" height="23" viewBox="0 0 24 23" fill="none" xmlns="http://www.w3.org/2000/svg">
<circle cx="12" cy="11.1656" r="11.1656" fill="white"/>
<path d="M18.7992 8.36188C18.7916 7.7872 18.6838 7.21823 18.4808 6.68042C18.3047 6.22679 18.0358 5.81481 17.6912 5.4708C17.3467 5.1268 16.934 4.85833 16.4796 4.68256C15.9478 4.48328 15.386 4.37552 14.8181 4.36388C14.087 4.33125 13.8552 4.32214 11.9991 4.32214C10.1431 4.32214 9.90523 4.32214 9.17939 4.36388C8.61176 4.3756 8.05024 4.48336 7.5187 4.68256C7.06424 4.85821 6.65151 5.12663 6.30692 5.47065C5.96232 5.81468 5.69346 6.22672 5.51751 6.68042C5.31749 7.21091 5.20979 7.77163 5.19906 8.33835C5.16637 9.06906 5.15649 9.30048 5.15649 11.1534C5.15649 13.0064 5.15649 13.2431 5.19906 13.9685C5.21046 14.536 5.31762 15.096 5.51751 15.6279C5.69375 16.0815 5.96282 16.4934 6.30753 16.8373C6.65224 17.1811 7.06501 17.4494 7.51946 17.625C8.04954 17.8323 8.61117 17.9478 9.18016 17.9665C9.91208 17.9991 10.1439 18.009 11.9999 18.009C13.8559 18.009 14.0938 18.009 14.8197 17.9665C15.3875 17.9553 15.9494 17.8478 16.4811 17.6486C16.9354 17.4726 17.3479 17.204 17.6925 16.8601C18.0371 16.5161 18.306 16.1042 18.4823 15.6507C18.6822 15.1195 18.7894 14.5596 18.8008 13.9912C18.8334 13.2613 18.8433 13.0299 18.8433 11.1762C18.8418 9.32325 18.8418 9.08803 18.7992 8.36188V8.36188ZM11.9946 14.6575C10.0534 14.6575 8.48092 13.0875 8.48092 11.1496C8.48092 9.21171 10.0534 7.6418 11.9946 7.6418C12.9265 7.6418 13.8202 8.01137 14.4791 8.66922C15.1381 9.32706 15.5083 10.2193 15.5083 11.1496C15.5083 12.08 15.1381 12.9722 14.4791 13.63C13.8202 14.2879 12.9265 14.6575 11.9946 14.6575V14.6575ZM15.6481 8.33001C15.5405 8.33011 15.4339 8.30902 15.3344 8.26795C15.235 8.22688 15.1446 8.16663 15.0685 8.09065C14.9924 8.01468 14.9321 7.92447 14.8909 7.82518C14.8498 7.7259 14.8287 7.61949 14.8288 7.51204C14.8288 7.40468 14.85 7.29836 14.8911 7.19917C14.9323 7.09998 14.9926 7.00985 15.0686 6.93393C15.1447 6.85801 15.235 6.79778 15.3343 6.7567C15.4337 6.71561 15.5402 6.69446 15.6477 6.69446C15.7553 6.69446 15.8618 6.71561 15.9611 6.7567C16.0605 6.79778 16.1508 6.85801 16.2268 6.93393C16.3029 7.00985 16.3632 7.09998 16.4043 7.19917C16.4455 7.29836 16.4667 7.40468 16.4667 7.51204C16.4667 7.96428 16.1003 8.33001 15.6481 8.33001Z" fill="#00A5C7"/>
<path d="M11.9946 13.4282C13.2551 13.4282 14.277 12.4081 14.277 11.1496C14.277 9.89117 13.2551 8.871 11.9946 8.871C10.734 8.871 9.71216 9.89117 9.71216 11.1496C9.71216 12.4081 10.734 13.4282 11.9946 13.4282Z" fill="#00A5C7"/>
</svg>
