<svg width="14" height="15" viewBox="0 0 14 15" fill="none" xmlns="http://www.w3.org/2000/svg">
<path d="M13.7992 4.36188C13.7916 3.78719 13.6838 3.21823 13.4808 2.68042C13.3047 2.22679 13.0358 1.81481 12.6912 1.4708C12.3467 1.1268 11.934 0.858334 11.4796 0.682563C10.9478 0.483275 10.386 0.375517 9.81814 0.363876C9.08698 0.331249 8.85517 0.322144 6.99915 0.322144C5.14313 0.322144 4.90523 0.322144 4.17939 0.363876C3.61176 0.375603 3.05024 0.48336 2.5187 0.682563C2.06424 0.858212 1.65151 1.12663 1.30692 1.47065C0.962324 1.81468 0.693455 2.22672 0.517514 2.68042C0.317495 3.21091 0.209791 3.77163 0.199056 4.33835C0.166375 5.06906 0.156494 5.30048 0.156494 7.15342C0.156494 9.00635 0.156494 9.24309 0.199056 9.96848C0.210457 10.536 0.317623 11.096 0.517514 11.6279C0.693751 12.0815 0.962819 12.4934 1.30753 12.8373C1.65224 13.1811 2.06501 13.4494 2.51946 13.625C3.04954 13.8323 3.61117 13.9478 4.18016 13.9665C4.91208 13.9991 5.14389 14.009 6.99991 14.009C8.85593 14.009 9.09382 14.009 9.81966 13.9665C10.3875 13.9553 10.9494 13.8478 11.4811 13.6486C11.9354 13.4726 12.3479 13.204 12.6925 12.8601C13.0371 12.5161 13.306 12.1042 13.4823 11.6507C13.6822 11.1195 13.7894 10.5596 13.8008 9.99125C13.8334 9.2613 13.8433 9.02988 13.8433 7.17618C13.8418 5.32325 13.8418 5.08803 13.7992 4.36188ZM6.99459 10.6575C5.05344 10.6575 3.48092 9.08754 3.48092 7.14962C3.48092 5.21171 5.05344 3.6418 6.99459 3.6418C7.92647 3.6418 8.82019 4.01137 9.47913 4.66922C10.1381 5.32706 10.5083 6.21929 10.5083 7.14962C10.5083 8.07996 10.1381 8.97219 9.47913 9.63003C8.82019 10.2879 7.92647 10.6575 6.99459 10.6575ZM10.6481 4.33001C10.5405 4.33011 10.4339 4.30902 10.3344 4.26795C10.235 4.22688 10.1446 4.16663 10.0685 4.09065C9.99244 4.01468 9.93209 3.92447 9.89095 3.82518C9.84981 3.7259 9.82868 3.61949 9.82878 3.51204C9.82878 3.40468 9.84997 3.29836 9.89112 3.19917C9.93228 3.09998 9.9926 3.00985 10.0686 2.93393C10.1447 2.85801 10.235 2.79778 10.3343 2.7567C10.4337 2.71561 10.5402 2.69446 10.6477 2.69446C10.7553 2.69446 10.8618 2.71561 10.9611 2.7567C11.0605 2.79778 11.1508 2.85801 11.2268 2.93393C11.3029 3.00985 11.3632 3.09998 11.4043 3.19917C11.4455 3.29836 11.4667 3.40468 11.4667 3.51204C11.4667 3.96428 11.1003 4.33001 10.6481 4.33001Z" fill="#00A5C7"/>
<path d="M6.99456 9.42822C8.2551 9.42822 9.27697 8.40805 9.27697 7.14961C9.27697 5.89117 8.2551 4.871 6.99456 4.871C5.73403 4.871 4.71216 5.89117 4.71216 7.14961C4.71216 8.40805 5.73403 9.42822 6.99456 9.42822Z" fill="#00A5C7"/>
</svg>
