<svg width="26" height="17" viewBox="0 0 26 17" fill="none" xmlns="http://www.w3.org/2000/svg">
<path fill-rule="evenodd" clip-rule="evenodd" d="M25.3333 8.14348C25.3333 7.90353 25.238 7.67342 25.0683 7.50375C24.8987 7.33409 24.6686 7.23877 24.4286 7.23877H3.09028L8.78448 1.54638C8.86859 1.46226 8.93532 1.3624 8.98084 1.2525C9.02636 1.1426 9.0498 1.0248 9.0498 0.905846C9.0498 0.786889 9.02636 0.669096 8.98084 0.559194C8.93532 0.449292 8.86859 0.349432 8.78448 0.265316C8.70036 0.1812 8.6005 0.114477 8.4906 0.0689535C8.3807 0.0234305 8.26291 0 8.14395 0C8.02499 0 7.9072 0.0234305 7.7973 0.0689535C7.68739 0.114477 7.58753 0.1812 7.50342 0.265316L0.265791 7.50294C0.181539 7.58698 0.114694 7.68682 0.0690854 7.79673C0.0234767 7.90665 0 8.02448 0 8.14348C0 8.26248 0.0234767 8.38031 0.0690854 8.49022C0.114694 8.60013 0.181539 8.69997 0.265791 8.78401L7.50342 16.0216C7.58753 16.1058 7.68739 16.1725 7.7973 16.218C7.9072 16.2635 8.02499 16.287 8.14395 16.287C8.26291 16.287 8.3807 16.2635 8.4906 16.218C8.6005 16.1725 8.70036 16.1058 8.78448 16.0216C8.86859 15.9375 8.93532 15.8377 8.98084 15.7278C9.02636 15.6179 9.0498 15.5001 9.0498 15.3811C9.0498 15.2621 9.02636 15.1444 8.98084 15.0345C8.93532 14.9246 8.86859 14.8247 8.78448 14.7406L3.09028 9.04818H24.4286C24.6686 9.04818 24.8987 8.95286 25.0683 8.7832C25.238 8.61353 25.3333 8.38342 25.3333 8.14348Z" fill="#979797"/>
</svg>
