<svg width="161" height="53" viewBox="0 0 161 53" fill="none" xmlns="http://www.w3.org/2000/svg">
<path d="M159.828 33.8246H59.0785C58.9783 33.8246 58.8995 33.645 58.8995 33.4223C58.8995 33.1995 58.9783 33.0199 59.0785 33.0199H159.828C159.928 33.0199 160.007 33.1995 160.007 33.4223C160 33.6522 159.921 33.8246 159.828 33.8246Z" fill="#595A5C"/>
<path fill-rule="evenodd" clip-rule="evenodd" d="M150.473 14.9725C150.473 18.3708 159.821 16.9842 159.821 22.9545C159.821 26.597 156.922 27.9405 153.687 27.9405C151.432 27.9405 149.221 27.0927 147.675 25.4259L147.582 25.3253L147.324 24.8081V24.5853C147.324 23.9172 147.854 23.3855 148.519 23.3855C148.884 23.3855 149.156 23.5436 149.421 23.8022C150.588 25.0092 152.019 25.5409 153.687 25.5409C155.491 25.5409 157.359 25.1026 157.359 22.9616C157.359 19.1539 148.004 20.7273 148.004 14.9797C148.004 11.7395 150.731 10.3888 153.623 10.3888C155.684 10.3888 157.903 11.1934 159.105 12.9537C159.263 13.1836 159.334 13.3991 159.334 13.6793C159.334 14.3331 158.783 14.8791 158.132 14.8791C157.71 14.8791 157.359 14.6851 157.13 14.3331C156.385 13.2195 154.897 12.7956 153.623 12.7956C152.127 12.7812 150.473 13.1764 150.473 14.9725ZM136.122 11.8041C137.318 10.863 138.885 10.3744 140.446 10.3744C144.926 10.3744 146.902 12.8171 146.902 17.0847V26.5395C146.902 27.2221 146.351 27.7753 145.671 27.7753C144.991 27.7753 144.44 27.2221 144.44 26.5395V16.7902C144.44 14.0241 143.287 12.81 140.438 12.81C137.983 12.81 136.115 14.3905 136.115 16.9195V26.5323C136.115 27.2149 135.564 27.7681 134.884 27.7681C134.204 27.7681 133.653 27.2149 133.653 26.5323V11.8041C133.653 11.1216 134.204 10.5684 134.884 10.5684C135.571 10.5756 136.122 11.1216 136.122 11.8041ZM129.223 26.6545C127.927 27.5382 126.252 27.9046 124.67 27.9046C121.256 27.9046 118.343 26.2378 118.343 22.5306C118.343 18.8018 121.356 17.1853 124.735 17.1853H129.215V16.4309C129.215 13.9307 127.719 12.774 125.315 12.774C123.683 12.774 122.351 13.1764 121.507 14.6133C121.292 15.0587 120.877 15.3173 120.383 15.3173C119.732 15.3173 119.18 14.7641 119.18 14.1175C119.18 13.823 119.274 13.5859 119.417 13.3632C120.727 11.2366 122.888 10.3744 125.315 10.3744C129.122 10.3744 131.642 12.5441 131.642 16.4309V26.5323C131.642 27.2221 131.091 27.7322 130.411 27.7322C129.774 27.7465 129.273 27.2795 129.223 26.6545ZM114.206 11.9766C115.38 10.9851 116.94 10.4463 118.529 10.4463C119.195 10.4463 119.724 10.9851 119.724 11.6461C119.724 12.3142 119.195 12.8459 118.529 12.8459C115.845 12.8459 114.206 14.8935 114.206 17.4799V26.5395C114.206 27.2221 113.655 27.7753 112.975 27.7753C112.295 27.7753 111.744 27.2221 111.744 26.5395V11.9047C111.744 11.2222 112.295 10.669 112.975 10.669C113.655 10.669 114.206 11.2222 114.206 11.9047V11.9766ZM98.9389 20.1525C99.1107 23.2275 100.234 25.5337 103.849 25.5337C105.567 25.5337 106.855 25.117 108.272 24.0896C108.537 23.9172 108.702 23.8022 109.045 23.8022C109.711 23.8022 110.248 24.3411 110.248 25.0092C110.248 25.3613 110.119 25.6271 109.876 25.8714L109.84 25.9073L109.804 25.936C108.086 27.3226 106.054 27.9405 103.856 27.9405C98.4236 27.9405 96.4553 24.1112 96.4553 19.1467C96.4553 14.1822 98.4379 10.3816 103.856 10.3816C108.473 10.3816 110.735 13.1333 110.735 17.5445C110.735 18.0115 110.706 18.5144 110.62 18.9958C110.47 19.7645 109.933 20.1453 109.181 20.1453H98.9389V20.1525ZM92.9695 13.241V26.5467C92.9695 27.2292 92.4184 27.7824 91.7384 27.7824C91.0585 27.7824 90.5073 27.2292 90.5073 26.5467V13.241H89.3979C88.7466 13.241 88.2026 12.6878 88.2026 12.0412C88.2026 11.3874 88.7537 10.8414 89.3979 10.8414H90.5073V9.69907C90.5073 5.84819 92.6975 3.31924 96.6414 3.31924C97.307 3.31924 97.8367 3.85808 97.8367 4.51905C97.8367 5.18721 97.307 5.72605 96.6414 5.72605C94.0145 5.72605 92.9695 7.17013 92.9695 9.70626V10.8486H96.0616C96.7058 10.8486 97.2641 11.4018 97.2641 12.0484C97.2641 12.7022 96.7129 13.2482 96.0616 13.2482H92.9695V13.241ZM77.0225 20.1525C77.1943 23.2275 78.3252 25.5337 81.9326 25.5337C83.6504 25.5337 84.9388 25.117 86.356 24.0896C86.6208 23.9172 86.7854 23.8094 87.1218 23.8094C87.7875 23.8094 88.3243 24.3483 88.3243 25.0164C88.3243 25.3685 88.1954 25.6343 87.9521 25.8786L87.9163 25.9145L87.8734 25.9432C86.1555 27.3298 84.1228 27.9477 81.9254 27.9477C76.4928 27.9477 74.5245 24.1184 74.5245 19.1539C74.5245 14.1894 76.5072 10.3888 81.9254 10.3888C86.542 10.3888 88.8038 13.1404 88.8038 17.5517C88.8038 18.0187 88.768 18.5216 88.6893 19.003C88.539 19.7717 88.0022 20.1525 87.2506 20.1525H77.0225ZM61.9344 17.444V26.5395C61.9344 27.2221 61.3832 27.7753 60.7033 27.7753C60.0233 27.7753 59.4722 27.2221 59.4722 26.5395V4.92857C59.4722 4.24604 60.0233 3.69284 60.7033 3.69284H67.3598C71.2535 3.69284 74.2382 6.66003 74.2382 10.5684C74.2382 14.096 71.8118 16.8548 68.4764 17.3577C69.321 18.5073 70.1512 19.6712 70.9958 20.8207C71.8118 21.9415 72.6206 23.0622 73.4366 24.1902C73.7014 24.5638 73.9734 24.9374 74.2382 25.311C74.3169 25.4187 74.3957 25.5265 74.4673 25.6343C74.4887 25.663 74.503 25.6918 74.5245 25.7205C74.6963 25.9504 74.8037 26.2521 74.8037 26.5395C74.8037 27.2221 74.2597 27.7753 73.5726 27.7753C73.1359 27.7753 72.7494 27.5597 72.5132 27.2149L65.5561 17.4368H61.9344V17.444ZM129.215 19.5634H124.735C122.788 19.5634 120.805 20.289 120.805 22.5306C120.805 24.8152 122.659 25.4978 124.67 25.4978C126.868 25.4978 129.223 24.6356 129.223 22.0708V19.5634H129.215ZM98.9747 17.7457H108.301C108.301 17.681 108.301 17.6092 108.301 17.5445C108.301 14.5486 107.077 12.7812 103.849 12.7812C100.492 12.7812 99.1966 14.8144 98.9747 17.7457ZM77.0654 17.7457H86.3846C86.3846 17.681 86.3846 17.6092 86.3846 17.5445C86.3846 14.5486 85.1606 12.7812 81.9326 12.7812C78.5757 12.7812 77.2802 14.8144 77.0654 17.7457ZM61.9344 15.0372H67.3598C69.9437 15.0372 71.7832 13.1333 71.7832 10.5684C71.7832 8.00353 69.9437 6.09964 67.3598 6.09964H61.9344V15.0372Z" fill="#00A5C7"/>
<path fill-rule="evenodd" clip-rule="evenodd" d="M49.4229 8.801C49.4229 3.94429 45.4934 0.00718449 40.6406 0.00718449L8.77516 0C3.9295 0 0 3.9371 0 8.79382V52.0445H42.3799C46.4096 51.247 49.4372 47.6907 49.4372 43.4231L49.4229 8.801Z" fill="#00A5C7"/>
<path fill-rule="evenodd" clip-rule="evenodd" d="M16.5554 15.1952V39.9386L15.539 40.6139C14.8018 41.1025 13.857 41.6772 13.084 41.9215V17.1853L14.1004 16.5028C14.8376 16.0214 15.7895 15.4395 16.5554 15.1952Z" fill="white"/>
<path fill-rule="evenodd" clip-rule="evenodd" d="M41.5854 39.8452C41.5854 39.8452 41.2132 40.6427 40.3185 41.0737C39.8819 41.2821 39.1232 41.6054 38.0567 41.7706C36.6324 41.9862 34.7786 42.0867 31.9943 41.3036C31.3358 41.1168 30.7274 40.851 30.1548 40.5133C29.5607 40.1685 29.0167 39.7518 28.5085 39.2848C28.0505 38.8537 27.621 38.3795 27.213 37.8623C26.8766 37.4384 26.5617 36.9929 26.2611 36.5259C24.8868 34.3778 24.0852 31.971 23.1404 29.636C23.0616 29.442 22.9829 29.2552 22.8827 29.0756C22.7825 28.8888 22.6751 28.7164 22.5391 28.5583C22.353 28.35 22.1312 28.1847 21.8377 28.077C21.6659 28.0195 21.4798 27.9764 21.2651 27.962C20.7712 27.9261 20.3919 27.9117 20.1127 27.9045C19.6904 27.8974 19.49 27.9261 19.49 27.9261V27.8758L19.4829 27.7896V26.8628V26.5539C19.4829 26.5036 19.4829 26.4533 19.49 26.4102C21.3295 26.7263 24.9226 25.9791 26.984 24.377C27.0412 24.3267 27.1057 24.2764 27.1558 24.2261L27.213 24.1758C27.2488 24.1399 27.2918 24.104 27.3275 24.0752L27.392 24.0106C27.4277 23.9746 27.4564 23.9387 27.4922 23.9028L27.5566 23.8238C27.5924 23.7878 27.6138 23.7591 27.6425 23.7232L27.7069 23.6441C27.7355 23.6082 27.7642 23.5723 27.7856 23.5436L27.85 23.4573C27.8715 23.4214 27.9001 23.3855 27.9216 23.3496L27.9789 23.2562C28.0075 23.2203 28.0218 23.1843 28.0505 23.1484L28.1077 23.055C28.1292 23.0191 28.1507 22.976 28.1721 22.9473C28.1864 22.9113 28.2079 22.8754 28.2294 22.8467C28.2437 22.8107 28.258 22.7676 28.2867 22.7317C28.301 22.6958 28.3224 22.6599 28.3368 22.6239C28.3511 22.588 28.3725 22.5521 28.3869 22.5162C28.4012 22.4731 28.4226 22.4372 28.437 22.4012L28.4656 22.3294C28.5014 22.2288 28.5443 22.1282 28.573 22.0205L28.6016 21.9414C28.6159 21.8911 28.6374 21.8408 28.6517 21.7905L28.6732 21.7043C28.7948 21.2589 28.8593 20.8063 28.895 20.3465C28.9451 19.628 28.8807 18.9096 28.7447 18.1983C28.7089 17.9756 28.6588 17.7529 28.5944 17.5301C28.3797 16.7758 27.9574 16.0932 27.4349 15.5113C26.848 14.8431 26.1179 14.2899 25.3449 13.8589C24.8725 13.6002 24.3715 13.3703 23.8347 13.1835C22.9901 12.889 22.0739 12.6806 21.1005 12.5872C20.9072 12.5728 20.7211 12.5585 20.5279 12.5513C20.3346 12.5369 20.127 12.5369 19.9266 12.5369C18.4522 12.5369 16.7845 12.9321 15.5462 13.3919C15.3959 13.4565 15.2456 13.5284 15.0953 13.6002C14.3652 13.9451 13.6852 14.3474 13.0554 14.7857H13.0482L13.0625 14.7569L13.0768 14.7282L13.0912 14.7138L13.1055 14.6851L13.1413 14.6492L13.1556 14.6276L13.2128 14.5558C13.2701 14.4696 13.3488 14.3618 13.449 14.2468L13.4562 14.2325C13.4848 14.1965 13.5135 14.1606 13.5349 14.1247L13.5993 14.0744C13.6208 14.0457 13.6495 14.0169 13.6852 13.981L13.7139 13.9451L13.7998 13.8445L13.8355 13.8014L13.9143 13.708L13.9644 13.6649L14.0503 13.5715L14.1004 13.5212L14.1934 13.4278L14.2507 13.3775C14.2865 13.3416 14.3151 13.3128 14.3509 13.2769L14.401 13.2338C14.4511 13.1835 14.5012 13.1404 14.5585 13.0901C15.4746 12.3214 16.2119 11.9334 17.1352 11.5455C17.4286 11.4305 17.9941 11.1862 18.2875 11.0928C19.3254 10.7408 20.4062 10.5109 21.487 10.4031C21.58 10.3888 21.6659 10.3888 21.7518 10.3816C23.4481 10.202 24.7723 10.3385 25.8316 10.5756C26.1609 10.6402 26.4829 10.7264 26.805 10.8126L26.8408 10.8198C26.9911 10.8629 27.1414 10.906 27.2846 10.9491L27.3562 10.9779C27.4993 11.021 27.6496 11.0713 27.7999 11.1216C29.1599 11.5958 30.4769 12.3501 31.4861 13.3919C31.5219 13.4206 31.5505 13.4637 31.5791 13.4925L31.6364 13.5499C32.0515 13.9666 32.4094 14.4121 32.71 14.8934C33.0106 15.382 33.254 15.8993 33.4329 16.4597C33.5331 16.7614 33.6119 17.0775 33.6763 17.4008C33.8409 18.2773 33.8624 19.1395 33.7479 19.9801C33.5761 21.2373 33.0965 22.4372 32.3665 23.4933C31.6793 24.4704 30.7846 25.2966 29.7754 25.9288C29.7325 25.9576 29.6967 25.9863 29.6537 26.0078C28.7734 26.5467 28.2079 26.8915 27.9001 27.2292C27.6854 27.4735 27.5924 27.7034 27.621 27.9908C27.6353 28.235 27.7284 28.508 27.893 28.8529C28.1149 29.3414 28.3797 29.8084 28.6302 30.2826C29.0597 31.0873 29.4533 31.8273 29.8613 32.5529C30.756 34.112 31.7509 35.592 33.483 37.4599C35.1865 39.3063 37.0475 40.5564 39.0301 40.5564C40.8696 40.5564 41.5854 39.8452 41.5854 39.8452Z" fill="white"/>
<path d="M153.873 42.2736V45.8802H157.91C158.268 45.8802 158.518 45.9233 158.669 46.0023C158.919 46.146 159.048 46.3831 159.048 46.7064C159.048 47.0369 158.919 47.2668 158.669 47.4105C158.518 47.4895 158.268 47.5326 157.91 47.5326H153.873V51.2398H158.79C159.148 51.2398 159.399 51.2829 159.549 51.3619C159.8 51.5056 159.928 51.7427 159.928 52.066C159.928 52.3965 159.8 52.6264 159.549 52.7701C159.399 52.8491 159.148 52.8922 158.79 52.8922H153.157C152.757 52.8922 152.47 52.806 152.291 52.6264C152.112 52.4468 152.027 52.1594 152.027 51.7571V41.7563C152.027 41.354 152.112 41.0666 152.291 40.887C152.47 40.7073 152.757 40.6211 153.157 40.6211H158.79C159.148 40.6211 159.399 40.6642 159.549 40.7433C159.8 40.887 159.928 41.124 159.928 41.4474C159.928 41.7778 159.8 42.0077 159.549 42.1514C159.399 42.2305 159.148 42.2736 158.79 42.2736H153.873ZM140.839 48.172C140.832 47.8416 140.825 47.3746 140.825 46.7567C140.825 46.1388 140.832 45.6718 140.839 45.3413C140.846 45.0109 140.875 44.6516 140.918 44.2493C140.961 43.847 141.025 43.5237 141.111 43.2722C141.197 43.0279 141.319 42.7693 141.469 42.5107C141.627 42.252 141.82 42.0006 142.056 41.7635C142.886 40.9301 143.938 40.5134 145.213 40.5134C145.95 40.5134 146.572 40.614 147.073 40.8295C147.575 41.0378 148.018 41.3611 148.419 41.785C148.734 42.1227 148.97 42.4747 149.121 42.834C149.278 43.1932 149.35 43.5021 149.35 43.7536C149.35 44.0553 149.264 44.2852 149.099 44.4505C148.913 44.6229 148.698 44.7091 148.455 44.7091C148.24 44.7091 148.054 44.6516 147.904 44.5295C147.746 44.4074 147.596 44.1775 147.446 43.8326C147.209 43.2866 146.916 42.8699 146.551 42.5897C146.186 42.3095 145.728 42.1658 145.17 42.1658C144.468 42.1658 143.881 42.4244 143.409 42.9345C143.101 43.2722 142.901 43.6889 142.815 44.1846C142.729 44.6804 142.679 45.5353 142.679 46.7567C142.679 47.9781 142.722 48.833 142.815 49.3287C142.901 49.8245 143.101 50.2412 143.409 50.5788C143.881 51.0889 144.468 51.3476 145.17 51.3476C145.728 51.3476 146.186 51.2039 146.551 50.9237C146.916 50.6435 147.209 50.2268 147.446 49.6808C147.596 49.3359 147.746 49.106 147.904 48.9839C148.054 48.8617 148.233 48.8043 148.455 48.8043C148.698 48.8043 148.913 48.8905 149.099 49.0629C149.264 49.2282 149.35 49.4652 149.35 49.7598C149.35 50.0113 149.271 50.3202 149.121 50.6794C148.963 51.0386 148.734 51.3907 148.419 51.7284C148.025 52.1522 147.575 52.4684 147.073 52.6767C146.572 52.8851 145.95 52.9928 145.213 52.9928C143.938 52.9928 142.886 52.5761 142.056 51.7427C141.82 51.5056 141.627 51.2542 141.469 50.9955C141.312 50.7369 141.197 50.4783 141.111 50.234C141.025 49.9897 140.961 49.6592 140.918 49.2569C140.868 48.8617 140.846 48.5025 140.839 48.172ZM130.711 44.2709V51.6996C130.711 51.9439 130.704 52.1163 130.69 52.2169C130.676 52.3175 130.633 52.4324 130.575 52.5474C130.418 52.8276 130.16 52.9713 129.788 52.9713C129.416 52.9713 129.151 52.8276 129.001 52.5474C128.936 52.4324 128.9 52.3247 128.886 52.2169C128.872 52.1163 128.865 51.9439 128.865 51.6996V41.7347C128.865 41.318 128.951 41.0163 129.13 40.8367C129.323 40.6427 129.559 40.5421 129.831 40.5421C130.046 40.5421 130.232 40.6068 130.389 40.7289C130.547 40.8582 130.718 41.0666 130.919 41.3611L136.23 49.2353V41.8138C136.23 41.5695 136.237 41.3971 136.251 41.2965C136.266 41.1959 136.301 41.0809 136.366 40.966C136.523 40.6858 136.781 40.5421 137.153 40.5421C137.525 40.5421 137.79 40.6858 137.94 40.966C138.005 41.0809 138.041 41.1887 138.055 41.2965C138.069 41.3971 138.076 41.5695 138.076 41.8138V51.7858C138.076 52.2025 137.991 52.4971 137.812 52.6767C137.618 52.8707 137.382 52.9713 137.11 52.9713C136.895 52.9713 136.716 52.9066 136.559 52.7845C136.402 52.6552 136.223 52.4468 136.029 52.1522L130.711 44.2709ZM124.448 50.428H119.381L118.773 52.0732C118.694 52.2888 118.629 52.4396 118.572 52.533C118.522 52.6264 118.45 52.7126 118.365 52.7773C118.214 52.8994 118.05 52.9569 117.856 52.9569C117.577 52.9569 117.348 52.8635 117.176 52.6839C117.069 52.5689 116.997 52.4396 116.969 52.2959C116.94 52.1522 116.94 52.0229 116.969 51.908C116.997 51.793 117.04 51.635 117.119 51.4482L120.863 41.433C120.97 41.1384 121.092 40.9301 121.235 40.7936C121.421 40.6211 121.643 40.5349 121.915 40.5349C122.187 40.5349 122.409 40.6211 122.595 40.7936C122.731 40.9229 122.852 41.1384 122.967 41.433L126.71 51.4482C126.782 51.635 126.839 51.793 126.861 51.908C126.889 52.0229 126.882 52.1522 126.853 52.2959C126.825 52.4396 126.753 52.5689 126.646 52.6839C126.474 52.8707 126.245 52.9569 125.966 52.9569C125.78 52.9569 125.608 52.8994 125.458 52.7773C125.372 52.7054 125.3 52.6264 125.25 52.533C125.2 52.4396 125.136 52.2888 125.05 52.0732L124.448 50.428ZM123.869 48.8474L121.908 43.4734L119.946 48.8474H123.869ZM109.446 52.8994C109.045 52.8994 108.759 52.8132 108.58 52.6336C108.401 52.454 108.315 52.1666 108.315 51.7643V41.8138C108.315 41.5695 108.322 41.3971 108.337 41.2965C108.351 41.1959 108.387 41.0809 108.451 40.966C108.609 40.6858 108.866 40.5421 109.239 40.5421C109.611 40.5421 109.876 40.6858 110.026 40.966C110.09 41.0809 110.126 41.1887 110.141 41.2965C110.155 41.3971 110.162 41.5695 110.162 41.8138V51.2398H114.993C115.351 51.2398 115.602 51.2829 115.752 51.3619C116.003 51.5056 116.131 51.7427 116.131 52.066C116.131 52.3965 116.003 52.6264 115.752 52.7701C115.602 52.8491 115.351 52.8922 114.993 52.8922H109.446V52.8994ZM104.071 51.8218C103.241 52.612 102.196 53 100.936 53C99.6762 53 98.6312 52.6049 97.8009 51.8218C96.9706 51.0315 96.5555 50.0113 96.5555 48.7612V41.8138C96.5555 41.5695 96.5626 41.3971 96.5769 41.2965C96.5912 41.1959 96.627 41.0809 96.6915 40.966C96.8489 40.6858 97.1066 40.5421 97.4788 40.5421C97.851 40.5421 98.1158 40.6858 98.2661 40.966C98.3305 41.0809 98.3663 41.1887 98.3806 41.2965C98.395 41.3971 98.4021 41.5695 98.4021 41.8138V48.6678C98.4021 49.4868 98.6312 50.1406 99.0892 50.6219C99.5473 51.1033 100.163 51.3404 100.929 51.3404C101.695 51.3404 102.31 51.0961 102.768 50.6219C103.226 50.1406 103.455 49.494 103.455 48.6678V41.8138C103.455 41.5695 103.463 41.3971 103.477 41.2965C103.491 41.1959 103.527 41.0809 103.591 40.966C103.749 40.6858 104.006 40.5421 104.379 40.5421C104.751 40.5421 105.016 40.6858 105.166 40.966C105.23 41.0809 105.266 41.1887 105.281 41.2965C105.295 41.3971 105.302 41.5695 105.302 41.8138V48.754C105.323 50.0113 104.901 51.0315 104.071 51.8218ZM87.2077 45.8155H89.9562C90.5646 45.8155 91.0441 45.6575 91.4092 45.3485C91.7671 45.0396 91.9532 44.6013 91.9532 44.0481C91.9532 43.4877 91.7742 43.0495 91.4092 42.7406C91.0513 42.4316 90.5646 42.2736 89.9562 42.2736H87.2077V45.8155ZM90.128 47.4751H87.2077V51.247H90.128C90.7578 51.247 91.2517 51.0746 91.6024 50.7225C91.9603 50.3705 92.1321 49.9179 92.1321 49.3503C92.1321 48.7899 91.9532 48.3445 91.6024 47.9996C91.2517 47.6476 90.7578 47.4751 90.128 47.4751ZM90.2998 52.8994H86.4848C86.084 52.8994 85.7977 52.8132 85.6187 52.6336C85.4398 52.454 85.3539 52.1666 85.3539 51.7643V41.7563C85.3539 41.354 85.4398 41.0666 85.6187 40.887C85.7977 40.7073 86.084 40.6211 86.4848 40.6211H90.1137C91.2446 40.6211 92.1464 40.9229 92.8121 41.5264C93.4777 42.1299 93.807 42.9489 93.807 43.9835C93.807 44.6085 93.6495 45.1545 93.3203 45.6215C92.9982 46.0885 92.6045 46.4118 92.1536 46.5843C92.6832 46.7998 93.1198 47.1447 93.4706 47.6188C93.8213 48.1002 93.9931 48.7037 93.9931 49.4293C93.9931 50.5357 93.6566 51.3835 92.9767 51.9942C92.3039 52.5977 91.4092 52.8994 90.2998 52.8994ZM80.315 44.6876L77.7311 50.119C77.6237 50.3489 77.4949 50.5214 77.3517 50.6363C77.2086 50.7513 77.0153 50.8087 76.7863 50.8087C76.5573 50.8087 76.3712 50.7513 76.228 50.6363C76.0849 50.5214 75.9489 50.3489 75.8343 50.119L73.2361 44.6876V51.6996C73.2361 51.9439 73.229 52.1163 73.2147 52.2169C73.2004 52.3175 73.1574 52.4324 73.1002 52.5474C72.9427 52.8276 72.685 52.9713 72.3128 52.9713C71.9406 52.9713 71.6758 52.8276 71.5255 52.5474C71.4611 52.4324 71.4253 52.3247 71.411 52.2169C71.3967 52.1163 71.3895 51.9439 71.3895 51.6996V41.6916C71.3895 41.3037 71.4825 41.0091 71.6615 40.8223C71.8476 40.6355 72.0695 40.5493 72.3415 40.5493C72.549 40.5493 72.7208 40.5924 72.864 40.6714C73.0286 40.772 73.1789 40.9588 73.322 41.2318L76.7935 48.3373L80.2506 41.2318C80.3865 40.9588 80.5369 40.772 80.7086 40.6714C80.8518 40.5924 81.0236 40.5493 81.2311 40.5493C81.5031 40.5493 81.725 40.6427 81.9111 40.8223C82.0972 41.0091 82.1831 41.3037 82.1831 41.6916V51.6924C82.1831 51.9367 82.1759 52.1091 82.1616 52.2097C82.1473 52.3103 82.1044 52.4253 82.0471 52.5402C81.8896 52.8204 81.632 52.9641 81.2598 52.9641C80.8876 52.9641 80.6227 52.8204 80.4724 52.5402C80.408 52.4253 80.3722 52.3175 80.3579 52.2097C80.3436 52.1091 80.3364 51.9367 80.3364 51.6924V44.6876H80.315ZM66.9733 50.428H61.9057L61.2973 52.0732C61.2186 52.2888 61.1542 52.4396 61.0969 52.533C61.0468 52.6264 60.9753 52.7126 60.8894 52.7773C60.7391 52.8994 60.5744 52.9569 60.3812 52.9569C60.102 52.9569 59.873 52.8635 59.7012 52.6839C59.5938 52.5689 59.5223 52.4396 59.4936 52.2959C59.465 52.1522 59.465 52.0229 59.4936 51.908C59.5223 51.793 59.5652 51.635 59.6439 51.4482L63.3873 41.433C63.4947 41.1384 63.6164 40.9301 63.7595 40.7936C63.9456 40.6211 64.1675 40.5349 64.4395 40.5349C64.7115 40.5349 64.9334 40.6211 65.1195 40.7936C65.2555 40.9229 65.3771 41.1384 65.4917 41.433L69.2351 51.4482C69.3067 51.635 69.3639 51.793 69.3854 51.908C69.414 52.0229 69.4069 52.1522 69.3782 52.2959C69.3496 52.4396 69.278 52.5689 69.1707 52.6839C68.9989 52.8707 68.7698 52.9569 68.4907 52.9569C68.3046 52.9569 68.1328 52.8994 67.9825 52.7773C67.8966 52.7054 67.825 52.6264 67.7749 52.533C67.7248 52.4396 67.6604 52.2888 67.5745 52.0732L66.9733 50.428ZM66.4007 48.8474L64.4395 43.4734L62.4783 48.8474H66.4007Z" fill="#595A5C"/>
</svg>
