<svg width="161" height="53" viewBox="0 0 161 53" fill="none" xmlns="http://www.w3.org/2000/svg">
<path d="M159.828 33.8247H59.0785C58.9783 33.8247 58.8995 33.6451 58.8995 33.4224C58.8995 33.1996 58.9783 33.02 59.0785 33.02H159.828C159.928 33.02 160.007 33.1996 160.007 33.4224C160 33.6523 159.921 33.8247 159.828 33.8247Z" fill="white"/>
<path fill-rule="evenodd" clip-rule="evenodd" d="M150.473 14.9726C150.473 18.3708 159.821 16.9842 159.821 22.9546C159.821 26.5971 156.922 27.9406 153.687 27.9406C151.432 27.9406 149.221 27.0928 147.675 25.426L147.582 25.3254L147.324 24.8082V24.5854C147.324 23.9173 147.854 23.3856 148.519 23.3856C148.884 23.3856 149.156 23.5437 149.421 23.8023C150.588 25.0093 152.019 25.541 153.687 25.541C155.491 25.541 157.359 25.1027 157.359 22.9617C157.359 19.154 148.004 20.7274 148.004 14.9798C148.004 11.7396 150.731 10.3889 153.623 10.3889C155.684 10.3889 157.903 11.1935 159.105 12.9537C159.263 13.1836 159.334 13.3992 159.334 13.6794C159.334 14.3332 158.783 14.8792 158.132 14.8792C157.71 14.8792 157.359 14.6852 157.13 14.3332C156.385 13.2196 154.897 12.7957 153.623 12.7957C152.127 12.7813 150.473 13.1765 150.473 14.9726ZM136.122 11.8042C137.318 10.8631 138.885 10.3745 140.446 10.3745C144.926 10.3745 146.902 12.8172 146.902 17.0848V26.5396C146.902 27.2221 146.351 27.7754 145.671 27.7754C144.991 27.7754 144.44 27.2221 144.44 26.5396V16.7903C144.44 14.0242 143.287 12.8101 140.438 12.8101C137.983 12.8101 136.115 14.3906 136.115 16.9196V26.5324C136.115 27.215 135.564 27.7682 134.884 27.7682C134.204 27.7682 133.653 27.215 133.653 26.5324V11.8042C133.653 11.1217 134.204 10.5685 134.884 10.5685C135.571 10.5757 136.122 11.1217 136.122 11.8042ZM129.223 26.6546C127.927 27.5383 126.252 27.9047 124.67 27.9047C121.256 27.9047 118.343 26.2379 118.343 22.5307C118.343 18.8019 121.356 17.1854 124.735 17.1854H129.215V16.431C129.215 13.9308 127.719 12.7741 125.315 12.7741C123.683 12.7741 122.351 13.1765 121.507 14.6134C121.292 15.0588 120.877 15.3174 120.383 15.3174C119.732 15.3174 119.18 14.7642 119.18 14.1176C119.18 13.8231 119.274 13.586 119.417 13.3633C120.727 11.2366 122.888 10.3745 125.315 10.3745C129.122 10.3745 131.642 12.5442 131.642 16.431V26.5324C131.642 27.2221 131.091 27.7322 130.411 27.7322C129.774 27.7466 129.273 27.2796 129.223 26.6546ZM114.206 11.9767C115.38 10.9852 116.94 10.4464 118.529 10.4464C119.195 10.4464 119.724 10.9852 119.724 11.6462C119.724 12.3143 119.195 12.846 118.529 12.846C115.845 12.846 114.206 14.8936 114.206 17.48V26.5396C114.206 27.2221 113.655 27.7754 112.975 27.7754C112.295 27.7754 111.744 27.2221 111.744 26.5396V11.9048C111.744 11.2223 112.295 10.6691 112.975 10.6691C113.655 10.6691 114.206 11.2223 114.206 11.9048V11.9767ZM98.9389 20.1526C99.1107 23.2276 100.234 25.5338 103.849 25.5338C105.567 25.5338 106.855 25.1171 108.272 24.0897C108.537 23.9173 108.702 23.8023 109.045 23.8023C109.711 23.8023 110.248 24.3412 110.248 25.0093C110.248 25.3614 110.119 25.6272 109.876 25.8715L109.84 25.9074L109.804 25.9361C108.086 27.3227 106.054 27.9406 103.856 27.9406C98.4236 27.9406 96.4553 24.1113 96.4553 19.1468C96.4553 14.1823 98.4379 10.3817 103.856 10.3817C108.473 10.3817 110.735 13.1334 110.735 17.5446C110.735 18.0116 110.706 18.5145 110.62 18.9959C110.47 19.7646 109.933 20.1454 109.181 20.1454H98.9389V20.1526ZM92.9695 13.2411V26.5468C92.9695 27.2293 92.4184 27.7825 91.7384 27.7825C91.0585 27.7825 90.5073 27.2293 90.5073 26.5468V13.2411H89.3979C88.7466 13.2411 88.2026 12.6879 88.2026 12.0413C88.2026 11.3875 88.7537 10.8415 89.3979 10.8415H90.5073V9.69917C90.5073 5.84828 92.6975 3.31934 96.6414 3.31934C97.307 3.31934 97.8367 3.85817 97.8367 4.51915C97.8367 5.1873 97.307 5.72614 96.6414 5.72614C94.0145 5.72614 92.9695 7.17022 92.9695 9.70635V10.8487H96.0616C96.7058 10.8487 97.2641 11.4019 97.2641 12.0485C97.2641 12.7023 96.7129 13.2483 96.0616 13.2483H92.9695V13.2411ZM77.0225 20.1526C77.1943 23.2276 78.3252 25.5338 81.9326 25.5338C83.6504 25.5338 84.9388 25.1171 86.356 24.0897C86.6208 23.9173 86.7854 23.8095 87.1218 23.8095C87.7875 23.8095 88.3243 24.3483 88.3243 25.0165C88.3243 25.3685 88.1954 25.6344 87.9521 25.8786L87.9163 25.9146L87.8734 25.9433C86.1555 27.3299 84.1228 27.9478 81.9254 27.9478C76.4928 27.9478 74.5245 24.1184 74.5245 19.154C74.5245 14.1895 76.5072 10.3889 81.9254 10.3889C86.542 10.3889 88.8038 13.1405 88.8038 17.5518C88.8038 18.0188 88.768 18.5217 88.6893 19.0031C88.539 19.7718 88.0022 20.1526 87.2506 20.1526H77.0225ZM61.9344 17.444V26.5396C61.9344 27.2221 61.3832 27.7754 60.7033 27.7754C60.0233 27.7754 59.4722 27.2221 59.4722 26.5396V4.92866C59.4722 4.24614 60.0233 3.69293 60.7033 3.69293H67.3598C71.2535 3.69293 74.2382 6.66013 74.2382 10.5685C74.2382 14.0961 71.8118 16.8549 68.4764 17.3578C69.321 18.5074 70.1512 19.6712 70.9958 20.8208C71.8118 21.9415 72.6206 23.0623 73.4366 24.1903C73.7014 24.5639 73.9734 24.9375 74.2382 25.3111C74.3169 25.4188 74.3957 25.5266 74.4673 25.6344C74.4887 25.6631 74.503 25.6918 74.5245 25.7206C74.6963 25.9505 74.8037 26.2522 74.8037 26.5396C74.8037 27.2221 74.2597 27.7754 73.5726 27.7754C73.1359 27.7754 72.7494 27.5598 72.5132 27.215L65.5561 17.4369H61.9344V17.444ZM129.215 19.5635H124.735C122.788 19.5635 120.805 20.2891 120.805 22.5307C120.805 24.8153 122.659 25.4979 124.67 25.4979C126.868 25.4979 129.223 24.6357 129.223 22.0709V19.5635H129.215ZM98.9747 17.7458H108.301C108.301 17.6811 108.301 17.6093 108.301 17.5446C108.301 14.5487 107.077 12.7813 103.849 12.7813C100.492 12.7813 99.1966 14.8145 98.9747 17.7458ZM77.0654 17.7458H86.3846C86.3846 17.6811 86.3846 17.6093 86.3846 17.5446C86.3846 14.5487 85.1606 12.7813 81.9326 12.7813C78.5757 12.7813 77.2802 14.8145 77.0654 17.7458ZM61.9344 15.0372H67.3598C69.9437 15.0372 71.7832 13.1334 71.7832 10.5685C71.7832 8.00363 69.9437 6.09973 67.3598 6.09973H61.9344V15.0372Z" fill="white"/>
<path fill-rule="evenodd" clip-rule="evenodd" d="M49.4229 8.801C49.4229 3.94429 45.4934 0.00718449 40.6406 0.00718449L8.77516 0C3.9295 0 0 3.9371 0 8.79382V52.0445H42.3799C46.4096 51.247 49.4372 47.6907 49.4372 43.4231L49.4229 8.801Z" fill="white"/>
<path fill-rule="evenodd" clip-rule="evenodd" d="M16.5554 15.1953V39.9387L15.539 40.614C14.8018 41.1026 13.857 41.6773 13.084 41.9216V17.1854L14.1004 16.5029C14.8376 16.0215 15.7895 15.4396 16.5554 15.1953Z" fill="#00A5C7"/>
<path fill-rule="evenodd" clip-rule="evenodd" d="M41.5854 39.8453C41.5854 39.8453 41.2132 40.6428 40.3185 41.0738C39.8819 41.2822 39.1232 41.6055 38.0567 41.7707C36.6324 41.9863 34.7786 42.0869 31.9943 41.3038C31.3358 41.117 30.7274 40.8511 30.1548 40.5135C29.5607 40.1686 29.0167 39.7519 28.5085 39.2849C28.0505 38.8538 27.621 38.3797 27.213 37.8624C26.8766 37.4385 26.5617 36.9931 26.2611 36.5261C24.8868 34.3779 24.0852 31.9711 23.1404 29.6361C23.0616 29.4422 22.9829 29.2554 22.8827 29.0757C22.7825 28.8889 22.6751 28.7165 22.5391 28.5585C22.353 28.3501 22.1312 28.1849 21.8377 28.0771C21.6659 28.0196 21.4798 27.9765 21.2651 27.9621C20.7712 27.9262 20.3919 27.9119 20.1127 27.9047C19.6904 27.8975 19.49 27.9262 19.49 27.9262V27.8759L19.4829 27.7897V26.8629V26.554C19.4829 26.5037 19.4829 26.4534 19.49 26.4103C21.3295 26.7264 24.9226 25.9792 26.984 24.3771C27.0412 24.3268 27.1057 24.2765 27.1558 24.2262L27.213 24.1759C27.2488 24.14 27.2918 24.1041 27.3275 24.0753L27.392 24.0107C27.4277 23.9748 27.4564 23.9388 27.4922 23.9029L27.5566 23.8239C27.5924 23.788 27.6138 23.7592 27.6425 23.7233L27.7069 23.6443C27.7355 23.6083 27.7642 23.5724 27.7856 23.5437L27.85 23.4575C27.8715 23.4215 27.9001 23.3856 27.9216 23.3497L27.9789 23.2563C28.0075 23.2204 28.0218 23.1845 28.0505 23.1485L28.1077 23.0551C28.1292 23.0192 28.1507 22.9761 28.1721 22.9474C28.1864 22.9115 28.2079 22.8755 28.2294 22.8468C28.2437 22.8109 28.258 22.7678 28.2867 22.7318C28.301 22.6959 28.3224 22.66 28.3368 22.6241C28.3511 22.5881 28.3725 22.5522 28.3869 22.5163C28.4012 22.4732 28.4226 22.4373 28.437 22.4014L28.4656 22.3295C28.5014 22.2289 28.5443 22.1283 28.573 22.0206L28.6016 21.9415C28.6159 21.8913 28.6374 21.841 28.6517 21.7907L28.6732 21.7045C28.7948 21.259 28.8593 20.8064 28.895 20.3466C28.9451 19.6281 28.8807 18.9097 28.7447 18.1984C28.7089 17.9757 28.6588 17.753 28.5944 17.5303C28.3797 16.7759 27.9574 16.0934 27.4349 15.5114C26.848 14.8433 26.1179 14.2901 25.3449 13.859C24.8725 13.6003 24.3715 13.3704 23.8347 13.1836C22.9901 12.8891 22.0739 12.6807 21.1005 12.5873C20.9072 12.573 20.7211 12.5586 20.5279 12.5514C20.3346 12.537 20.127 12.537 19.9266 12.537C18.4522 12.537 16.7845 12.9322 15.5462 13.392C15.3959 13.4567 15.2456 13.5285 15.0953 13.6003C14.3652 13.9452 13.6852 14.3475 13.0554 14.7858H13.0482L13.0625 14.7571L13.0768 14.7283L13.0912 14.7139L13.1055 14.6852L13.1413 14.6493L13.1556 14.6277L13.2128 14.5559C13.2701 14.4697 13.3488 14.3619 13.449 14.247L13.4562 14.2326C13.4848 14.1967 13.5135 14.1607 13.5349 14.1248L13.5993 14.0745C13.6208 14.0458 13.6495 14.017 13.6852 13.9811L13.7139 13.9452L13.7998 13.8446L13.8355 13.8015L13.9143 13.7081L13.9644 13.665L14.0503 13.5716L14.1004 13.5213L14.1934 13.4279L14.2507 13.3776C14.2865 13.3417 14.3151 13.313 14.3509 13.277L14.401 13.2339C14.4511 13.1836 14.5012 13.1405 14.5585 13.0902C15.4746 12.3215 16.2119 11.9335 17.1352 11.5456C17.4286 11.4306 17.9941 11.1864 18.2875 11.093C19.3254 10.7409 20.4062 10.511 21.487 10.4032C21.58 10.3889 21.6659 10.3889 21.7518 10.3817C23.4481 10.2021 24.7723 10.3386 25.8316 10.5757C26.1609 10.6403 26.4829 10.7266 26.805 10.8128L26.8408 10.82C26.9911 10.8631 27.1414 10.9062 27.2846 10.9493L27.3562 10.978C27.4993 11.0211 27.6496 11.0714 27.7999 11.1217C29.1599 11.5959 30.4769 12.3502 31.4861 13.392C31.5219 13.4207 31.5505 13.4638 31.5791 13.4926L31.6364 13.5501C32.0515 13.9668 32.4094 14.4122 32.71 14.8936C33.0106 15.3821 33.254 15.8994 33.4329 16.4598C33.5331 16.7615 33.6119 17.0776 33.6763 17.4009C33.8409 18.2775 33.8624 19.1396 33.7479 19.9802C33.5761 21.2375 33.0965 22.4373 32.3665 23.4934C31.6793 24.4705 30.7846 25.2967 29.7754 25.9289C29.7325 25.9577 29.6967 25.9864 29.6537 26.008C28.7734 26.5468 28.2079 26.8917 27.9001 27.2293C27.6854 27.4736 27.5924 27.7035 27.621 27.9909C27.6353 28.2352 27.7284 28.5082 27.893 28.853C28.1149 29.3416 28.3797 29.8086 28.6302 30.2827C29.0597 31.0874 29.4533 31.8274 29.8613 32.553C30.756 34.1121 31.7509 35.5921 33.483 37.46C35.1865 39.3065 37.0475 40.5566 39.0301 40.5566C40.8696 40.5566 41.5854 39.8453 41.5854 39.8453Z" fill="#00A5C7"/>
<path d="M153.873 42.2734V45.88H157.91C158.268 45.88 158.518 45.9231 158.669 46.0021C158.919 46.1458 159.048 46.3829 159.048 46.7062C159.048 47.0367 158.919 47.2666 158.669 47.4103C158.518 47.4893 158.268 47.5324 157.91 47.5324H153.873V51.2396H158.79C159.148 51.2396 159.399 51.2827 159.549 51.3618C159.8 51.5055 159.928 51.7425 159.928 52.0658C159.928 52.3963 159.8 52.6262 159.549 52.7699C159.399 52.849 159.148 52.8921 158.79 52.8921H153.157C152.757 52.8921 152.47 52.8058 152.291 52.6262C152.112 52.4466 152.027 52.1592 152.027 51.7569V41.7561C152.027 41.3538 152.112 41.0664 152.291 40.8868C152.47 40.7072 152.757 40.621 153.157 40.621H158.79C159.148 40.621 159.399 40.6641 159.549 40.7431C159.8 40.8868 159.928 41.1239 159.928 41.4472C159.928 41.7777 159.8 42.0076 159.549 42.1512C159.399 42.2303 159.148 42.2734 158.79 42.2734H153.873ZM140.839 48.1719C140.832 47.8414 140.825 47.3744 140.825 46.7565C140.825 46.1386 140.832 45.6716 140.839 45.3412C140.846 45.0107 140.875 44.6515 140.918 44.2491C140.961 43.8468 141.025 43.5235 141.111 43.272C141.197 43.0278 141.319 42.7691 141.469 42.5105C141.627 42.2518 141.82 42.0004 142.056 41.7633C142.886 40.9299 143.938 40.5132 145.213 40.5132C145.95 40.5132 146.572 40.6138 147.073 40.8293C147.575 41.0377 148.018 41.361 148.419 41.7848C148.734 42.1225 148.97 42.4745 149.121 42.8338C149.278 43.193 149.35 43.5019 149.35 43.7534C149.35 44.0551 149.264 44.285 149.099 44.4503C148.913 44.6227 148.698 44.7089 148.455 44.7089C148.24 44.7089 148.054 44.6515 147.904 44.5293C147.746 44.4072 147.596 44.1773 147.446 43.8324C147.209 43.2864 146.916 42.8697 146.551 42.5895C146.186 42.3093 145.728 42.1656 145.17 42.1656C144.468 42.1656 143.881 42.4243 143.409 42.9344C143.101 43.272 142.901 43.6887 142.815 44.1845C142.729 44.6802 142.679 45.5351 142.679 46.7565C142.679 47.9779 142.722 48.8328 142.815 49.3286C142.901 49.8243 143.101 50.241 143.409 50.5787C143.881 51.0888 144.468 51.3474 145.17 51.3474C145.728 51.3474 146.186 51.2037 146.551 50.9235C146.916 50.6433 147.209 50.2266 147.446 49.6806C147.596 49.3357 147.746 49.1058 147.904 48.9837C148.054 48.8616 148.233 48.8041 148.455 48.8041C148.698 48.8041 148.913 48.8903 149.099 49.0627C149.264 49.228 149.35 49.4651 149.35 49.7596C149.35 50.0111 149.271 50.32 149.121 50.6792C148.963 51.0385 148.734 51.3905 148.419 51.7282C148.025 52.1521 147.575 52.4682 147.073 52.6765C146.572 52.8849 145.95 52.9926 145.213 52.9926C143.938 52.9926 142.886 52.5759 142.056 51.7425C141.82 51.5055 141.627 51.254 141.469 50.9954C141.312 50.7367 141.197 50.4781 141.111 50.2338C141.025 49.9895 140.961 49.659 140.918 49.2567C140.868 48.8616 140.846 48.5023 140.839 48.1719ZM130.711 44.2707V51.6994C130.711 51.9437 130.704 52.1161 130.69 52.2167C130.676 52.3173 130.633 52.4323 130.575 52.5472C130.418 52.8274 130.16 52.9711 129.788 52.9711C129.416 52.9711 129.151 52.8274 129.001 52.5472C128.936 52.4323 128.9 52.3245 128.886 52.2167C128.872 52.1161 128.865 51.9437 128.865 51.6994V41.7345C128.865 41.3178 128.951 41.0161 129.13 40.8365C129.323 40.6425 129.559 40.5419 129.831 40.5419C130.046 40.5419 130.232 40.6066 130.389 40.7287C130.547 40.858 130.718 41.0664 130.919 41.361L136.23 49.2352V41.8136C136.23 41.5693 136.237 41.3969 136.251 41.2963C136.266 41.1957 136.301 41.0808 136.366 40.9658C136.523 40.6856 136.781 40.5419 137.153 40.5419C137.525 40.5419 137.79 40.6856 137.94 40.9658C138.005 41.0808 138.041 41.1885 138.055 41.2963C138.069 41.3969 138.076 41.5693 138.076 41.8136V51.7857C138.076 52.2024 137.991 52.4969 137.812 52.6765C137.618 52.8705 137.382 52.9711 137.11 52.9711C136.895 52.9711 136.716 52.9064 136.559 52.7843C136.402 52.655 136.223 52.4466 136.029 52.1521L130.711 44.2707ZM124.448 50.4278H119.381L118.773 52.073C118.694 52.2886 118.629 52.4394 118.572 52.5328C118.522 52.6262 118.45 52.7125 118.365 52.7771C118.214 52.8992 118.05 52.9567 117.856 52.9567C117.577 52.9567 117.348 52.8633 117.176 52.6837C117.069 52.5688 116.997 52.4394 116.969 52.2958C116.94 52.1521 116.94 52.0227 116.969 51.9078C116.997 51.7928 117.04 51.6348 117.119 51.448L120.863 41.4328C120.97 41.1382 121.092 40.9299 121.235 40.7934C121.421 40.621 121.643 40.5347 121.915 40.5347C122.187 40.5347 122.409 40.621 122.595 40.7934C122.731 40.9227 122.852 41.1382 122.967 41.4328L126.71 51.448C126.782 51.6348 126.839 51.7928 126.861 51.9078C126.889 52.0227 126.882 52.1521 126.853 52.2958C126.825 52.4394 126.753 52.5688 126.646 52.6837C126.474 52.8705 126.245 52.9567 125.966 52.9567C125.78 52.9567 125.608 52.8992 125.458 52.7771C125.372 52.7053 125.3 52.6262 125.25 52.5328C125.2 52.4394 125.136 52.2886 125.05 52.073L124.448 50.4278ZM123.869 48.8472L121.908 43.4732L119.946 48.8472H123.869ZM109.446 52.8992C109.045 52.8992 108.759 52.813 108.58 52.6334C108.401 52.4538 108.315 52.1664 108.315 51.7641V41.8136C108.315 41.5693 108.322 41.3969 108.337 41.2963C108.351 41.1957 108.387 41.0808 108.451 40.9658C108.609 40.6856 108.866 40.5419 109.239 40.5419C109.611 40.5419 109.876 40.6856 110.026 40.9658C110.09 41.0808 110.126 41.1885 110.141 41.2963C110.155 41.3969 110.162 41.5693 110.162 41.8136V51.2396H114.993C115.351 51.2396 115.602 51.2827 115.752 51.3618C116.003 51.5055 116.131 51.7425 116.131 52.0658C116.131 52.3963 116.003 52.6262 115.752 52.7699C115.602 52.849 115.351 52.8921 114.993 52.8921H109.446V52.8992ZM104.071 51.8216C103.241 52.6119 102.196 52.9998 100.936 52.9998C99.6762 52.9998 98.6312 52.6047 97.8009 51.8216C96.9706 51.0313 96.5555 50.0111 96.5555 48.761V41.8136C96.5555 41.5693 96.5626 41.3969 96.5769 41.2963C96.5912 41.1957 96.627 41.0808 96.6915 40.9658C96.8489 40.6856 97.1066 40.5419 97.4788 40.5419C97.851 40.5419 98.1158 40.6856 98.2661 40.9658C98.3305 41.0808 98.3663 41.1885 98.3806 41.2963C98.395 41.3969 98.4021 41.5693 98.4021 41.8136V48.6676C98.4021 49.4866 98.6312 50.1404 99.0892 50.6218C99.5473 51.1031 100.163 51.3402 100.929 51.3402C101.695 51.3402 102.31 51.0959 102.768 50.6218C103.226 50.1404 103.455 49.4938 103.455 48.6676V41.8136C103.455 41.5693 103.463 41.3969 103.477 41.2963C103.491 41.1957 103.527 41.0808 103.591 40.9658C103.749 40.6856 104.006 40.5419 104.379 40.5419C104.751 40.5419 105.016 40.6856 105.166 40.9658C105.23 41.0808 105.266 41.1885 105.281 41.2963C105.295 41.3969 105.302 41.5693 105.302 41.8136V48.7538C105.323 50.0111 104.901 51.0313 104.071 51.8216ZM87.2077 45.8153H89.9562C90.5646 45.8153 91.0441 45.6573 91.4092 45.3483C91.7671 45.0394 91.9532 44.6012 91.9532 44.048C91.9532 43.4876 91.7742 43.0493 91.4092 42.7404C91.0513 42.4314 90.5646 42.2734 89.9562 42.2734H87.2077V45.8153ZM90.128 47.475H87.2077V51.2468H90.128C90.7578 51.2468 91.2517 51.0744 91.6024 50.7223C91.9603 50.3703 92.1321 49.9177 92.1321 49.3501C92.1321 48.7897 91.9532 48.3443 91.6024 47.9994C91.2517 47.6474 90.7578 47.475 90.128 47.475ZM90.2998 52.8992H86.4848C86.084 52.8992 85.7977 52.813 85.6187 52.6334C85.4398 52.4538 85.3539 52.1664 85.3539 51.7641V41.7561C85.3539 41.3538 85.4398 41.0664 85.6187 40.8868C85.7977 40.7072 86.084 40.621 86.4848 40.621H90.1137C91.2446 40.621 92.1464 40.9227 92.8121 41.5262C93.4777 42.1297 93.807 42.9487 93.807 43.9833C93.807 44.6083 93.6495 45.1544 93.3203 45.6214C92.9982 46.0883 92.6045 46.4116 92.1536 46.5841C92.6832 46.7996 93.1198 47.1445 93.4706 47.6186C93.8213 48.1 93.9931 48.7035 93.9931 49.4291C93.9931 50.5356 93.6566 51.3833 92.9767 51.994C92.3039 52.5975 91.4092 52.8992 90.2998 52.8992ZM80.315 44.6874L77.7311 50.1189C77.6237 50.3488 77.4949 50.5212 77.3517 50.6361C77.2086 50.7511 77.0153 50.8086 76.7863 50.8086C76.5573 50.8086 76.3712 50.7511 76.228 50.6361C76.0849 50.5212 75.9489 50.3488 75.8343 50.1189L73.2361 44.6874V51.6994C73.2361 51.9437 73.229 52.1161 73.2147 52.2167C73.2004 52.3173 73.1574 52.4323 73.1002 52.5472C72.9427 52.8274 72.685 52.9711 72.3128 52.9711C71.9406 52.9711 71.6758 52.8274 71.5255 52.5472C71.4611 52.4323 71.4253 52.3245 71.411 52.2167C71.3967 52.1161 71.3895 51.9437 71.3895 51.6994V41.6914C71.3895 41.3035 71.4825 41.0089 71.6615 40.8221C71.8476 40.6353 72.0695 40.5491 72.3415 40.5491C72.549 40.5491 72.7208 40.5922 72.864 40.6712C73.0286 40.7718 73.1789 40.9586 73.322 41.2316L76.7935 48.3371L80.2506 41.2316C80.3865 40.9586 80.5369 40.7718 80.7086 40.6712C80.8518 40.5922 81.0236 40.5491 81.2311 40.5491C81.5031 40.5491 81.725 40.6425 81.9111 40.8221C82.0972 41.0089 82.1831 41.3035 82.1831 41.6914V51.6923C82.1831 51.9365 82.1759 52.109 82.1616 52.2095C82.1473 52.3101 82.1044 52.4251 82.0471 52.54C81.8896 52.8202 81.632 52.9639 81.2598 52.9639C80.8876 52.9639 80.6227 52.8202 80.4724 52.54C80.408 52.4251 80.3722 52.3173 80.3579 52.2095C80.3436 52.109 80.3364 51.9365 80.3364 51.6923V44.6874H80.315ZM66.9733 50.4278H61.9057L61.2973 52.073C61.2186 52.2886 61.1542 52.4394 61.0969 52.5328C61.0468 52.6262 60.9753 52.7125 60.8894 52.7771C60.7391 52.8992 60.5744 52.9567 60.3812 52.9567C60.102 52.9567 59.873 52.8633 59.7012 52.6837C59.5938 52.5688 59.5223 52.4394 59.4936 52.2958C59.465 52.1521 59.465 52.0227 59.4936 51.9078C59.5223 51.7928 59.5652 51.6348 59.6439 51.448L63.3873 41.4328C63.4947 41.1382 63.6164 40.9299 63.7595 40.7934C63.9456 40.621 64.1675 40.5347 64.4395 40.5347C64.7115 40.5347 64.9334 40.621 65.1195 40.7934C65.2555 40.9227 65.3771 41.1382 65.4917 41.4328L69.2351 51.448C69.3067 51.6348 69.3639 51.7928 69.3854 51.9078C69.414 52.0227 69.4069 52.1521 69.3782 52.2958C69.3496 52.4394 69.278 52.5688 69.1707 52.6837C68.9989 52.8705 68.7698 52.9567 68.4907 52.9567C68.3046 52.9567 68.1328 52.8992 67.9825 52.7771C67.8966 52.7053 67.825 52.6262 67.7749 52.5328C67.7248 52.4394 67.6604 52.2886 67.5745 52.073L66.9733 50.4278ZM66.4007 48.8472L64.4395 43.4732L62.4783 48.8472H66.4007Z" fill="white"/>
</svg>
