<svg width="40" height="40" viewBox="0 0 40 40" fill="none" xmlns="http://www.w3.org/2000/svg">
<path d="M34.2195 39.9999C33.6985 39.7984 33.1399 39.7963 32.6002 39.7044C28.2445 38.9568 24.1686 37.4355 20.3861 35.1761C13.0926 30.818 7.43187 24.8948 3.57315 17.301C1.82859 13.8669 0.67181 10.2366 0.149798 6.41304C0.0986404 6.0403 0.039131 5.66755 0.00676619 5.29272C-0.0516992 4.59943 0.270904 4.1275 0.890011 3.83723C3.34138 2.68663 5.79171 1.53393 8.24203 0.380197C8.58134 0.220448 8.90812 0.0137152 9.30172 0.0335532C9.79972 0.0586118 10.1954 0.27683 10.4689 0.701782C12.0924 3.22434 13.72 5.74377 15.3372 8.27051C15.7444 8.90637 15.6557 9.55476 15.1075 10.1081C14.1637 11.0604 13.2283 12.0209 12.2584 12.9471C11.7489 13.4336 11.633 13.9818 11.751 14.6448C12.1905 17.1099 13.2314 19.3088 14.7244 21.2937C16.6224 23.8173 18.9663 25.8157 21.8499 27.148C23.0077 27.6836 24.2167 28.0574 25.4747 28.2725C26.0792 28.3758 26.5866 28.2255 27.0282 27.7671C27.9501 26.8118 28.8991 25.8825 29.8398 24.9459C30.4693 24.3184 31.0832 24.2485 31.8318 24.7288C34.2894 26.3064 36.7397 27.8955 39.2047 29.4638C39.6254 29.7311 39.8259 30.1184 39.9992 30.5465C39.9992 30.677 39.9992 30.8065 39.9992 30.937C39.9042 31.1438 39.8092 31.3505 39.7121 31.5562C38.5824 33.9597 37.4445 36.3601 36.3284 38.771C36.082 39.3024 35.7876 39.7576 35.2343 39.9999C34.896 39.9999 34.5577 39.9999 34.2195 39.9999Z" fill="#00A5C7"/>
<path d="M40.0003 20.3905C39.8792 20.4302 39.9001 20.5575 39.8531 20.6411C39.5639 21.1621 38.9625 21.4784 38.4228 21.3792C37.7723 21.2602 37.3151 20.7935 37.2535 20.1493C37.171 19.2952 37.1783 18.437 37.0561 17.5839C36.6271 14.5905 35.5037 11.8894 33.6526 9.50776C30.8619 5.91707 27.1974 3.75786 22.7206 2.97896C21.7842 2.81608 20.831 2.8119 19.884 2.7503C19.2764 2.71167 18.8703 2.36189 18.6834 1.7939C18.3859 0.893877 19.0488 0.00325424 20.0072 0.000121922C23.4254 -0.0113632 26.6493 0.788422 29.6196 2.47048C35.0464 5.54537 38.3925 10.1655 39.661 16.2777C39.7925 16.9126 39.8844 17.5568 39.921 18.2073C39.9241 18.2689 39.9116 18.3399 39.9993 18.3586C40.0003 19.0363 40.0003 19.7129 40.0003 20.3905Z" fill="#00A5C7"/>
<path d="M33.1107 19.5437C33.1295 20.5533 32.7996 21.1109 32.1617 21.3186C31.221 21.6246 30.3378 20.9563 30.3284 19.8997C30.3148 18.4098 30.0214 16.9793 29.3647 15.6491C27.6995 12.2735 25.0049 10.2866 21.261 9.74889C20.8455 9.68938 20.431 9.6946 20.0165 9.67267C19.2001 9.63091 18.5893 9.01175 18.606 8.25164C18.6238 7.4623 19.2586 6.88073 20.1021 6.88282C26.2619 6.90057 31.6689 11.3798 32.8685 17.4648C33.0136 18.2041 33.0825 18.9558 33.1107 19.5437Z" fill="#00A5C7"/>
</svg>
