<svg width="137" height="41" viewBox="0 0 137 41" fill="none" xmlns="http://www.w3.org/2000/svg">
<path d="M36.6387 14.8574V13.7432H32.4824V15.2471H34.6289L34.6221 15.4043C34.5811 16.6279 33.6445 17.4551 32.2979 17.4551C30.6572 17.4551 29.6182 16.1494 29.6182 14.0098C29.6182 11.9111 30.5957 10.6738 32.2227 10.6738C33.3369 10.6738 34.1777 11.2891 34.4785 12.3213H36.5498C36.2559 10.3252 34.5195 8.96484 32.2158 8.96484C29.3174 8.96484 27.5127 10.8789 27.5127 14.0371C27.5127 17.2432 29.3174 19.1709 32.2637 19.1709C35.0117 19.1709 36.6387 17.5439 36.6387 14.8574ZM41.2939 19.1299C43.5771 19.1299 45.0059 17.6738 45.0059 15.2334C45.0059 12.8203 43.5635 11.3438 41.2939 11.3438C39.0312 11.3438 37.582 12.8271 37.582 15.2334C37.582 17.667 39.0107 19.1299 41.2939 19.1299ZM41.2939 17.5918C40.2412 17.5918 39.6055 16.7305 39.6055 15.2334C39.6055 13.7568 40.2412 12.875 41.2939 12.875C42.3398 12.875 42.9756 13.75 42.9756 15.2334C42.9756 16.7305 42.3467 17.5918 41.2939 17.5918ZM49.5107 19.1299C51.7939 19.1299 53.2227 17.6738 53.2227 15.2334C53.2227 12.8203 51.7803 11.3438 49.5107 11.3438C47.248 11.3438 45.7988 12.8271 45.7988 15.2334C45.7988 17.667 47.2275 19.1299 49.5107 19.1299ZM49.5107 17.5918C48.458 17.5918 47.8223 16.7305 47.8223 15.2334C47.8223 13.7568 48.458 12.875 49.5107 12.875C50.5566 12.875 51.1924 13.75 51.1924 15.2334C51.1924 16.7305 50.5635 17.5918 49.5107 17.5918ZM57.748 17.4072C56.709 17.4072 56.0596 16.5869 56.0596 15.2197C56.0596 13.8594 56.7158 12.998 57.748 12.998C58.7871 12.998 59.457 13.873 59.457 15.2266C59.457 16.5732 58.7871 17.4072 57.748 17.4072ZM57.7275 21.7549C59.9902 21.7549 61.4463 20.6201 61.4463 18.8291V11.4736H59.4775V12.7588H59.4434C59.0469 11.9248 58.1924 11.3848 57.1123 11.3848C55.2051 11.3848 54.0156 12.8545 54.0156 15.2129C54.0156 17.5303 55.2461 18.9521 57.0781 18.9521C58.165 18.9521 59.0469 18.4395 59.4092 17.6328H59.4502V18.9795C59.4502 19.8271 58.7871 20.3467 57.7754 20.3467C56.9893 20.3467 56.3604 20.0322 56.2305 19.5332H54.2617C54.3643 20.8867 55.752 21.7549 57.7275 21.7549ZM62.8545 19H64.8506V8.66406H62.8545V19ZM69.6152 12.834C70.5381 12.834 71.1807 13.4766 71.2148 14.4609H67.9678C68.0361 13.4971 68.7061 12.834 69.6152 12.834ZM71.2422 16.7031C71.0508 17.2842 70.4561 17.6396 69.7041 17.6396C68.6514 17.6396 67.9473 16.9082 67.9473 15.8213V15.6982H73.1426V15.083C73.1426 12.793 71.7617 11.3438 69.5947 11.3438C67.3867 11.3438 65.9785 12.875 65.9785 15.2676C65.9785 17.6602 67.3799 19.1299 69.6699 19.1299C71.502 19.1299 72.8623 18.1592 73.0811 16.7031H71.2422ZM77.3672 9.13574V19H79.4316V15.8896H81.3799C83.458 15.8896 84.9004 14.5361 84.9004 12.5127C84.9004 10.4824 83.5059 9.13574 81.4824 9.13574H77.3672ZM79.4316 10.7695H80.9355C82.1182 10.7695 82.8018 11.3984 82.8018 12.5195C82.8018 13.6475 82.1113 14.2764 80.9287 14.2764H79.4316V10.7695ZM86.0283 19H88.0244V8.66406H86.0283V19ZM92.3105 17.6328C91.5859 17.6328 91.1143 17.2842 91.1143 16.7305C91.1143 16.1768 91.5586 15.8486 92.3926 15.7939L93.9717 15.6846V16.2383C93.9717 17.0586 93.2334 17.6328 92.3105 17.6328ZM91.6611 19.0889C92.625 19.0889 93.5547 18.624 93.9648 17.8379H94.0059V19H95.9336V13.8389C95.9336 12.335 94.6689 11.3438 92.7344 11.3438C90.8545 11.3438 89.5557 12.335 89.501 13.7705H91.3262C91.4219 13.2236 91.9277 12.8408 92.6523 12.8408C93.4727 12.8408 93.9717 13.2373 93.9717 13.9619V14.4609L92.0918 14.5771C90.1709 14.6934 89.125 15.4658 89.125 16.833C89.125 18.1797 90.2119 19.0889 91.6611 19.0889ZM98.1963 21.748C100.076 21.748 100.999 21.0713 101.642 19.1504L104.246 11.4736H102.141L100.507 17.3799H100.466L98.8389 11.4736H96.6514L99.29 19.0479L99.2217 19.335C99.0645 19.9365 98.6338 20.1963 97.8887 20.1963C97.8066 20.1963 97.5059 20.1895 97.4375 20.1758V21.7207C97.5127 21.7344 98.1211 21.748 98.1963 21.748Z" fill="#00A5C7"/>
<path d="M36.6777 28.1357H35.249L31.8447 36.3662H31.79L28.3857 28.1357H26.957V38H28.1055V30.3984H28.1533L31.2979 37.9316H32.3369L35.4814 30.3984H35.5293V38H36.6777V28.1357ZM41.4766 38.0684C43.5479 38.0684 44.874 36.5986 44.874 34.3154C44.874 32.0254 43.5479 30.5625 41.4766 30.5625C39.4053 30.5625 38.0791 32.0254 38.0791 34.3154C38.0791 36.5986 39.4053 38.0684 41.4766 38.0684ZM41.4766 37.0088C40.1094 37.0088 39.2891 36.0039 39.2891 34.3154C39.2891 32.627 40.1025 31.6221 41.4766 31.6221C42.8506 31.6221 43.6641 32.6201 43.6641 34.3154C43.6641 36.0039 42.8506 37.0088 41.4766 37.0088ZM49.748 38.0684C51.6279 38.0684 52.8926 36.5713 52.8926 34.3154C52.8926 32.0664 51.6279 30.5625 49.7754 30.5625C48.7295 30.5625 47.875 31.0205 47.4102 31.8271H47.3828V27.7051H46.1934V38H47.3213V36.7559H47.3486C47.8271 37.6035 48.6748 38.0684 49.748 38.0684ZM49.5361 31.6221C50.8281 31.6221 51.6758 32.6816 51.6758 34.3154C51.6758 35.9561 50.8281 37.0088 49.5361 37.0088C48.251 37.0088 47.376 35.915 47.376 34.3154C47.376 32.7227 48.251 31.6221 49.5361 31.6221ZM54.2188 38H55.4082V30.6309H54.2188V38ZM54.8135 29.4414C55.2305 29.4414 55.5654 29.0996 55.5654 28.6895C55.5654 28.2725 55.2305 27.9375 54.8135 27.9375C54.4033 27.9375 54.0615 28.2725 54.0615 28.6895C54.0615 29.0996 54.4033 29.4414 54.8135 29.4414ZM57.1582 38H58.3477V27.7051H57.1582V38ZM63.7686 28.9697V30.6309H62.7432V31.6152H63.7686V36.0859C63.7686 37.501 64.2881 38.0547 65.6211 38.0547C65.9014 38.0547 66.2432 38.0273 66.3867 37.9932V36.9883C66.3047 37.002 66.0176 37.0225 65.874 37.0225C65.2451 37.0225 64.958 36.7148 64.958 36.0381V31.6152H66.3936V30.6309H64.958V28.9697H63.7686ZM74.1455 34.3154C74.1455 32.0527 72.7988 30.5625 70.7822 30.5625C69.2441 30.5625 68.0684 31.3965 67.8359 32.4287C68.2666 32.4287 68.9434 32.4287 69.1006 32.4287C69.2646 31.9502 69.9688 31.6221 70.7754 31.6221C71.8828 31.6221 72.7236 32.415 72.8877 33.6797H67.3848C67.3574 33.8848 67.3506 34.0967 67.3506 34.3154C67.3506 36.5986 68.6768 38.0684 70.748 38.0684C72.8193 38.0684 74.1455 36.5986 74.1455 34.3154ZM70.748 37.0088C69.4766 37.0088 68.6836 36.1406 68.5742 34.6641H72.9219C72.8125 36.1406 72.0264 37.0088 70.748 37.0088ZM75.7861 28.9697V30.6309H74.7607V31.6152H75.7861V36.0859C75.7861 37.501 76.3057 38.0547 77.6387 38.0547C77.9189 38.0547 78.2607 38.0273 78.4043 37.9932V36.9883C78.3223 37.002 78.0352 37.0225 77.8916 37.0225C77.2627 37.0225 76.9756 36.7148 76.9756 36.0381V31.6152H78.4111V30.6309H76.9756V28.9697H75.7861ZM83.3535 38.0684C85.2334 38.0684 86.498 36.5713 86.498 34.3154C86.498 32.0664 85.2334 30.5625 83.3809 30.5625C82.335 30.5625 81.4805 31.0205 81.0156 31.8271H80.9883V27.7051H79.7988V38H80.9268V36.7559H80.9541C81.4326 37.6035 82.2803 38.0684 83.3535 38.0684ZM83.1416 31.6221C84.4336 31.6221 85.2812 32.6816 85.2812 34.3154C85.2812 35.9561 84.4336 37.0088 83.1416 37.0088C81.8564 37.0088 80.9814 35.915 80.9814 34.3154C80.9814 32.7227 81.8564 31.6221 83.1416 31.6221ZM87.8242 38H89.0137V30.6309H87.8242V38ZM88.4189 29.4414C88.8359 29.4414 89.1709 29.0996 89.1709 28.6895C89.1709 28.2725 88.8359 27.9375 88.4189 27.9375C88.0088 27.9375 87.667 28.2725 87.667 28.6895C87.667 29.0996 88.0088 29.4414 88.4189 29.4414ZM93.4775 30.5625C91.5977 30.5625 90.333 32.0596 90.333 34.3154C90.333 36.5645 91.5977 38.0684 93.4502 38.0684C94.4893 38.0684 95.3506 37.6104 95.8154 36.8037H95.8428V40.4609H97.0322V30.6309H95.8975V31.8271H95.877C95.4053 31.0137 94.5439 30.5625 93.4775 30.5625ZM93.6758 37.0088C92.3906 37.0088 91.5498 35.9561 91.5498 34.3154C91.5498 32.6816 92.3906 31.6221 93.6758 31.6221C94.9609 31.6221 95.8428 32.7227 95.8428 34.3154C95.8428 35.915 94.9609 37.0088 93.6758 37.0088ZM98.7207 38H99.9102V30.6309H98.7207V38ZM99.3154 29.4414C99.7324 29.4414 100.067 29.0996 100.067 28.6895C100.067 28.2725 99.7324 27.9375 99.3154 27.9375C98.9053 27.9375 98.5635 28.2725 98.5635 28.6895C98.5635 29.0996 98.9053 29.4414 99.3154 29.4414ZM105.57 40.6729C106.876 40.6729 107.464 40.1602 108.093 38.4512L110.978 30.6309H109.727L107.662 36.79H107.635L105.57 30.6309H104.306L107.033 38.0068L106.89 38.4443C106.589 39.333 106.22 39.6611 105.536 39.6611C105.379 39.6611 105.188 39.6475 105.051 39.6201V40.625C105.194 40.6523 105.42 40.6729 105.57 40.6729ZM118.101 30.6309H116.911V34.9102C116.911 36.1748 116.111 37.0088 114.901 37.0088C113.746 37.0088 113.11 36.3594 113.11 35.1494V30.6309H111.921V35.3545C111.921 37.0293 112.926 38.0684 114.539 38.0684C115.667 38.0684 116.494 37.6309 116.952 36.7832H116.979V38H118.101V30.6309ZM113.664 29.3799C114.088 29.3799 114.43 29.0312 114.43 28.6143C114.43 28.1904 114.088 27.8486 113.664 27.8486C113.247 27.8486 112.898 28.1904 112.898 28.6143C112.898 29.0312 113.247 29.3799 113.664 29.3799ZM116.357 29.3799C116.781 29.3799 117.123 29.0312 117.123 28.6143C117.123 28.1904 116.781 27.8486 116.357 27.8486C115.94 27.8486 115.592 28.1904 115.592 28.6143C115.592 29.0312 115.94 29.3799 116.357 29.3799ZM120.979 33.9258V27.7051H119.789V38H120.979V35.2041L121.676 34.5479L124.444 38H125.825L122.51 33.8164L125.729 30.6309H124.28L120.979 33.9258ZM126.803 38H127.992V27.7051H126.803V38ZM136.106 34.3154C136.106 32.0527 134.76 30.5625 132.743 30.5625C131.205 30.5625 130.029 31.3965 129.797 32.4287C130.228 32.4287 130.904 32.4287 131.062 32.4287C131.226 31.9502 131.93 31.6221 132.736 31.6221C133.844 31.6221 134.685 32.415 134.849 33.6797H129.346C129.318 33.8848 129.312 34.0967 129.312 34.3154C129.312 36.5986 130.638 38.0684 132.709 38.0684C134.78 38.0684 136.106 36.5986 136.106 34.3154ZM132.709 37.0088C131.438 37.0088 130.645 36.1406 130.535 34.6641H134.883C134.773 36.1406 133.987 37.0088 132.709 37.0088Z" fill="#00A5C7"/>
<path d="M1.45029 29.9998C1.27427 30.0029 1.09826 29.9723 0.93259 29.9089L9.27174 21.3978L12.0321 24.2172L2.44946 29.7103C2.14595 29.8919 1.80205 29.9916 1.45029 29.9998ZM0.245082 29.2973C0.0755635 28.9841 -0.00880052 28.6303 0.00072611 28.2726V12.7388C-0.000673286 12.503 0.0342665 12.2684 0.104266 12.0437L8.62875 20.7429L0.241975 29.2994L0.245082 29.2973ZM12.8553 23.7429L9.91369 20.7439L13.1576 17.4354L16.0391 19.0865C16.5921 19.34 16.9627 19.884 17 20.5009C16.9816 20.804 16.8823 21.0962 16.7127 21.3457C16.5431 21.5952 16.3098 21.7926 16.0381 21.9165L12.8553 23.7429ZM9.27174 20.0847L0.636464 11.2757C0.873572 11.0961 1.16038 11.0011 1.45547 11C1.80337 11.0127 2.14298 11.113 2.44428 11.2926L12.3334 16.9632L9.27277 20.0847H9.27174Z" fill="#00A5C7"/>
</svg>
