<svg width="73" height="73" viewBox="0 0 73 73" fill="none" xmlns="http://www.w3.org/2000/svg">
<path d="M63.6875 22C58.6125 22 54.625 25.9875 54.625 31.0625C54.625 35.4125 57.8875 39.0375 61.875 39.7625V49.1875C61.875 60.0625 52.8125 69.125 41.9375 69.125C31.0625 69.125 22 60.0625 22 49.1875V47.375C32.15 46.2875 40.125 37.95 40.125 27.4375V2.0625C40.125 0.975 39.4 0.25 38.3125 0.25H31.0625C29.975 0.25 29.25 0.975 29.25 2.0625C29.25 3.15 29.975 3.875 31.0625 3.875H36.5V27.4375C36.5 36.5 29.25 43.75 20.1875 43.75C11.125 43.75 3.875 36.5 3.875 27.4375V3.875H9.3125C10.4 3.875 11.125 3.15 11.125 2.0625C11.125 0.975 10.4 0.25 9.3125 0.25H2.0625C0.975 0.25 0.25 0.975 0.25 2.0625V27.4375C0.25 37.95 8.225 46.2875 18.375 47.375V49.1875C18.375 62.2375 28.8875 72.75 41.9375 72.75C54.9875 72.75 65.5 62.2375 65.5 49.1875V39.7625C69.4875 39.0375 72.75 35.4125 72.75 31.0625C72.75 25.9875 68.7625 22 63.6875 22ZM63.6875 36.5C60.7875 36.5 58.25 33.9625 58.25 31.0625C58.25 28.1625 60.7875 25.625 63.6875 25.625C66.5875 25.625 69.125 28.1625 69.125 31.0625C69.125 33.9625 66.5875 36.5 63.6875 36.5Z" fill="#00A5C7"/>
</svg>
