<svg width="108" height="81" viewBox="0 0 108 81" fill="none" xmlns="http://www.w3.org/2000/svg">
<path d="M0 49.2388C2.70273 46.5635 5.41602 43.8988 8.0955 41.2003C8.65126 40.6404 9.20279 40.372 10.0142 40.3804C14.0778 40.4227 18.1414 40.4016 22.205 40.3973C22.7418 40.3973 23.3271 40.3551 23.5258 40.9848C23.7455 41.6737 23.1898 41.9738 22.7122 42.2781C20.1785 43.8862 17.6448 45.4964 15.1133 47.1045C14.7498 47.301 14.38 47.4891 14.0208 47.6962C12.4211 48.6154 10.9567 49.7607 9.27041 50.5342C6.69236 50.5236 4.11643 50.5003 1.53838 50.5151C0.965712 50.5194 0.452215 50.4475 0 50.0819C0 49.7988 0 49.5177 0 49.2388ZM19.4896 42.2654C19.4685 42.2041 19.4495 42.1449 19.4284 42.0836C16.3157 42.0836 13.203 42.0836 10.0924 42.0836C9.84519 42.0836 9.6212 42.1027 9.42256 42.3013C7.30729 44.4187 5.18357 46.5276 2.88446 48.8162C5.00395 48.8162 6.84874 48.8119 8.69352 48.8204C8.95555 48.8225 9.16687 48.7253 9.37607 48.5922C12.7466 46.4832 16.117 44.3743 19.4896 42.2654Z" fill="#7A7A7A"/>
<path d="M0 71.1226C0.593797 70.5182 1.35665 70.7211 2.06878 70.7042C2.80204 70.6873 3.53742 70.6894 4.27069 70.7168C4.71022 70.7337 4.97225 71.0127 5.03565 71.4395C5.09904 71.8812 4.87082 72.2848 4.47566 72.3207C3.15705 72.4369 1.82788 72.456 0.50927 72.3059C0.329652 72.2848 0.171166 72.0819 0.00211316 71.9636C0 71.6826 0 71.4036 0 71.1226Z" fill="#7A7A7A"/>
<path d="M88.1291 47.1087C87.1147 45.1477 87.3852 43.0768 87.8121 41.0756C88.0382 40.0148 89.0927 39.5647 90.2105 39.5605C91.5946 39.5542 92.9788 39.5584 94.3734 39.476C92.1145 38.2313 89.6505 37.889 87.1422 37.8869C68.5232 37.8679 49.9042 37.8679 31.2852 37.9017C30.2688 37.9038 29.6073 37.5868 28.9607 36.8345C25.8523 33.2189 22.6762 29.6625 19.5677 26.049C18.6041 24.929 17.4926 24.35 16.0071 24.4007C14.6061 24.4493 13.2029 24.4113 11.7998 24.4113C10.236 24.4113 10.1008 24.5423 10.1008 26.0638C10.1029 29.7449 10.1093 33.4281 10.1135 37.1092C10.1135 37.3903 10.124 37.6713 10.0924 37.9503C10.0353 38.4595 9.6507 38.6666 9.21751 38.6899C8.78008 38.7131 8.51805 38.4025 8.44198 37.982C8.39972 37.7432 8.41873 37.4917 8.41873 37.2466C8.41662 33.4239 8.41028 29.6033 8.41451 25.7806C8.41662 23.659 9.3612 22.7292 11.5061 22.725C13.0487 22.7208 14.5934 22.7694 16.1339 22.7123C18.0336 22.6426 19.5086 23.3843 20.7342 24.7959C23.8596 28.3946 27.0124 31.9722 30.1525 35.5603C30.4505 35.9005 30.7041 36.2111 31.2619 36.2069C35.82 36.1794 40.376 36.1921 45.0461 36.1921C43.9535 33.257 42.8885 30.3852 41.8129 27.5176C40.0336 22.7778 38.2417 18.0422 36.4624 13.3024C35.5242 10.8047 36.604 9.25996 39.2793 9.25785C42.3645 9.25573 45.4518 9.31701 48.5349 9.23883C50.7706 9.18177 52.4104 10.0566 53.7311 11.8274C59.593 19.6926 65.4993 27.524 71.3654 35.387C71.8092 35.9829 72.2508 36.2196 73.001 36.2133C77.7345 36.1773 82.4679 36.2471 87.2014 36.1794C91.4214 36.1182 95.1997 37.3417 98.5871 39.7993C100.937 41.5046 103.232 43.2881 105.558 45.0272C107.042 46.1366 107.764 47.6201 107.733 49.4564C107.716 50.5024 107.868 51.5569 107.579 52.5923C106.945 54.8619 105.085 56.3854 102.75 56.3897C92.0553 56.4087 81.3606 56.396 70.6659 56.4087C70.0151 56.4087 69.5819 56.2185 69.4255 55.5592C69.639 54.7013 70.2961 54.7076 70.9956 54.7076C78.6283 54.716 86.2631 54.7139 93.8959 54.7139C96.8014 54.7139 99.7092 54.7308 102.615 54.7076C104.493 54.6907 105.935 53.3573 106.04 51.5569C106.089 50.7201 106.055 49.8769 106.044 49.0359C106.036 48.3026 105.782 47.9518 104.918 47.9603C100.227 48.0089 95.5336 47.9687 90.8424 47.9941C89.8175 47.9941 88.9025 47.8102 88.1291 47.1087ZM42.5251 10.9526C42.5948 11.1681 42.6371 11.3309 42.6962 11.4872C45.699 19.4982 48.7145 27.5049 51.6898 35.5286C51.918 36.1435 52.2435 36.2006 52.7781 36.2006C58.2131 36.1879 63.6482 36.1942 69.0832 36.1879C69.2692 36.1879 69.5058 36.2978 69.6368 36.0653C69.6368 36.0167 69.6495 35.9745 69.6347 35.9554C63.7369 28.0755 57.8412 20.1934 51.9349 12.3198C51.2883 11.4576 50.3775 10.9885 49.3125 10.9674C47.0726 10.923 44.8347 10.9526 42.5251 10.9526ZM50.0965 36.1456C46.9902 27.8747 43.924 19.7074 40.8535 11.5401C40.7817 11.3478 40.676 11.0202 40.5683 11.0139C39.7463 10.9568 38.8566 10.6694 38.1276 11.1977C37.4915 11.6605 37.9374 12.3008 38.1339 12.8291C40.7077 19.7306 43.3006 26.6238 45.885 33.5232C46.9352 36.3253 46.931 36.3274 50.0965 36.1456ZM104.282 46.2888C102.101 44.649 100.147 43.1761 98.1898 41.7075C97.858 41.4581 97.5453 41.2235 97.0698 41.2299C94.8278 41.2574 92.5857 41.2447 90.3436 41.2405C89.6209 41.2405 89.2237 41.5701 89.2237 42.3139C89.2216 43.2944 89.2152 44.2749 89.2279 45.2554C89.2364 45.9401 89.6083 46.2846 90.2845 46.2846C94.8616 46.2909 99.4387 46.2888 104.282 46.2888Z" fill="#7A7A7A"/>
<path d="M88.129 47.1086C88.9025 47.8102 89.8175 47.9941 90.8423 47.9877C95.5335 47.9624 100.227 48.0025 104.918 47.9539C105.782 47.9455 106.036 48.2941 106.044 49.0295C106.055 49.8705 106.089 50.7116 106.04 51.5505C105.934 53.3509 104.491 54.6864 102.615 54.7012C99.7091 54.7266 96.8014 54.7076 93.8958 54.7076C86.2631 54.7076 78.6283 54.7118 70.9956 54.7012C70.2961 54.7012 69.6389 54.6949 69.4255 55.5528C68.7239 55.5401 68.0224 55.5296 67.3208 55.519C67.4349 55.3098 67.53 55.0879 67.6652 54.8956C69.0811 52.8818 70.5011 50.8679 71.9254 48.8605C72.3438 48.2709 72.5952 47.7067 71.8282 47.1932C75.9383 47.1742 80.0483 47.1551 84.1584 47.134C85.4813 47.1277 86.8062 47.1171 88.129 47.1086Z" fill="#F58633"/>
<path d="M9.26831 50.5319C10.9546 49.7564 12.419 48.6132 14.0187 47.694C14.3779 47.4869 14.7477 47.2988 15.1112 47.1023C23.9886 47.1129 32.868 47.1213 41.7454 47.1361C43.176 47.1382 44.6087 47.1741 46.0414 47.1932C45.5343 47.47 45.4307 47.9983 45.2553 48.4758C44.3847 50.8341 43.6789 53.2516 42.6794 55.5634C42.0898 55.5634 41.5003 55.5634 40.9107 55.5634C40.7226 54.6822 40.0528 54.7033 39.3596 54.7033C30.9176 54.7097 22.4734 54.7012 14.0314 54.7139C12.5162 54.716 11.2779 54.2617 10.5278 52.867C10.2678 52.3831 9.90648 52.1295 9.35495 52.1612C9.32537 51.6202 9.29789 51.075 9.26831 50.5319Z" fill="#F58633"/>
<path d="M42.6793 55.5634C43.6789 53.2516 44.3847 50.8342 45.2553 48.4759C45.4328 47.9983 45.5363 47.47 46.0414 47.1932C46.4598 47.1721 46.8761 47.134 47.2945 47.134C55.054 47.1298 62.8135 47.1298 70.573 47.134C70.9914 47.134 71.4077 47.1721 71.8261 47.1911C72.5953 47.7046 72.3417 48.2688 71.9254 48.8584C70.5011 50.868 69.0811 52.8797 67.6653 54.8935C67.53 55.0858 67.4349 55.3098 67.3208 55.5169C62.4035 62.4607 57.4735 69.3919 52.59 76.359C52.0174 77.1768 51.4088 77.4705 50.4283 77.4557C46.6774 77.4029 42.9202 77.3226 39.1736 77.4768C36.9569 77.5677 35.5009 75.7588 36.3293 73.5337C38.546 67.5809 40.5767 61.5584 42.6793 55.5634ZM42.4553 75.7504C45.0693 75.7504 47.5227 75.725 49.9761 75.7673C50.648 75.78 51.0348 75.5729 51.4257 75.0171C56.9178 67.1921 62.4395 59.3882 67.9527 51.578C68.5697 50.7031 69.1804 49.8262 69.8059 48.9302C69.6601 48.8689 69.603 48.8224 69.5439 48.8224C63.8996 48.8182 58.2533 48.8267 52.6091 48.8013C52.0089 48.7992 51.8631 49.0845 51.6962 49.5599C50.1895 53.8792 48.6553 58.1879 47.1318 62.5009C45.587 66.8772 44.0444 71.2494 42.4553 75.7504ZM50.1367 48.8161C49.2703 48.8161 48.5645 48.8774 47.8735 48.7992C47.0916 48.7126 46.8 49.0485 46.5549 49.7501C43.7401 57.8245 40.8895 65.8862 38.0494 73.95C37.8149 74.6156 37.445 75.3383 38.4319 75.6975C39.5307 76.0969 40.6401 75.7123 40.9296 74.8903C42.6603 69.9857 44.3868 65.0811 46.1174 60.1785C47.4382 56.4319 48.7673 52.6874 50.1367 48.8161Z" fill="#7A7A7A"/>
<path d="M88.3888 80.803C86.7765 80.803 85.162 80.8114 83.5497 80.8009C80.8195 80.7818 78.5817 78.8631 78.3027 76.3167C78.0175 73.7028 79.8073 71.3043 82.5333 70.7761C83.1334 70.6598 83.2898 70.4739 83.4039 69.8928C83.9026 67.3591 85.9967 65.639 88.4332 65.658C90.8126 65.6749 92.873 67.4014 93.3569 69.8885C93.4689 70.4654 93.6147 70.6619 94.2211 70.7782C96.9556 71.3022 98.7285 73.6732 98.458 76.3083C98.1981 78.8462 95.9497 80.784 93.228 80.8051C91.6156 80.8114 90.0012 80.803 88.3888 80.803Z" fill="#00A5C7"/>
<path d="M15.1386 10.0967C14.0186 10.0967 12.8986 10.1178 11.7808 10.0903C10.0585 10.0481 8.66808 8.82457 8.43986 7.18687C8.20952 5.54072 9.20693 3.99178 10.8848 3.51843C11.4765 3.3515 11.7744 3.10848 11.9371 2.4851C12.3407 0.942499 13.6403 -0.00630789 15.1639 3.15703e-05C16.6833 0.00637104 17.9638 0.961517 18.378 2.51046C18.5302 3.0789 18.7415 3.34304 19.3437 3.49942C21.0913 3.95586 22.1099 5.53438 21.8584 7.21434C21.609 8.89219 20.2017 10.0692 18.3907 10.0946C17.3067 10.1094 16.2226 10.0967 15.1386 10.0967Z" fill="#00A5C7"/>
<path d="M9.35468 52.1633C9.90621 52.1316 10.2676 52.3852 10.5275 52.8691C11.2776 54.2638 12.5181 54.7181 14.0311 54.716C22.4731 54.7033 30.9173 54.7118 39.3594 54.7054C40.0546 54.7054 40.7224 54.6843 40.9104 55.5655C40.7879 56.191 40.3927 56.4023 39.7778 56.4002C30.9406 56.3896 22.1033 56.4129 13.2661 56.3706C11.415 56.3621 10.0393 55.3499 9.07363 53.7925C8.68903 53.1713 8.6679 52.6028 9.35468 52.1633Z" fill="#7A7A7A"/>
<path d="M21.4589 75.7525C24.2229 75.7525 26.9869 75.7546 29.751 75.7503C30.3997 75.7503 31.1245 75.706 31.1139 76.6146C31.1055 77.4409 30.4356 77.4388 29.8122 77.4388C24.2483 77.4345 18.6865 77.4345 13.1225 77.4388C12.4992 77.4388 11.8293 77.443 11.8124 76.6231C11.7934 75.7165 12.5161 75.7482 13.1669 75.7503C15.9309 75.7546 18.6949 75.7525 21.4589 75.7525Z" fill="#7A7A7A"/>
<path d="M15.5759 70.702C18.0948 70.702 20.6137 70.7062 23.1325 70.6977C23.7728 70.6956 24.4025 70.7463 24.3835 71.5726C24.3666 72.3206 23.7834 72.3904 23.1748 72.3883C18.1032 72.3819 13.0295 72.3819 7.95797 72.3883C7.34516 72.3883 6.76826 72.3058 6.7577 71.562C6.74713 70.7358 7.38108 70.6935 8.01925 70.6956C10.5402 70.7062 13.0591 70.702 15.5759 70.702Z" fill="#7A7A7A"/>
<path d="M91.0982 12.5058C91.0982 12.1021 91.1193 11.6985 91.0918 11.297C91.0686 10.9695 91.151 10.8533 91.5039 10.866C92.309 10.8955 93.1162 10.8786 93.9213 10.8744C94.5616 10.8702 94.961 10.5025 94.9716 9.93194C94.9821 9.34448 94.5637 8.94298 93.915 8.93664C93.1416 8.9303 92.3661 8.9134 91.5948 8.94509C91.2102 8.95989 91.0644 8.88804 91.0876 8.46118C91.1277 7.68988 91.1024 6.91435 91.0982 6.14094C91.0939 5.48163 90.7115 5.06111 90.124 5.06534C89.5429 5.06957 89.1646 5.4922 89.1625 6.15361C89.1583 6.97563 89.1519 7.79765 89.1667 8.61967C89.171 8.87113 89.1012 8.94721 88.8455 8.94298C88.1038 8.92607 87.3621 8.93664 86.6204 8.93664C85.7244 8.93664 85.2954 9.24727 85.287 9.89813C85.2785 10.5764 85.6948 10.8786 86.6394 10.8786C87.3642 10.8786 88.0911 10.8913 88.816 10.8723C89.0864 10.866 89.1731 10.9378 89.1667 11.2167C89.1477 12.0388 89.1562 12.8608 89.1604 13.6828C89.1646 14.3505 89.5344 14.752 90.1346 14.7499C90.7284 14.7478 91.0918 14.3421 91.0961 13.6722C91.1003 13.2813 91.0982 12.8946 91.0982 12.5058Z" fill="#7A7A7A"/>
<path d="M82.5356 19.1749C82.5356 18.8009 82.5567 18.4247 82.5292 18.0528C82.5081 17.7485 82.5842 17.6407 82.9117 17.6513C83.6598 17.6788 84.4078 17.664 85.158 17.6577C85.7518 17.6534 86.1237 17.3132 86.1322 16.7807C86.1406 16.2355 85.7539 15.8615 85.1516 15.8572C84.4332 15.8509 83.7126 15.8361 82.9962 15.8636C82.6391 15.8784 82.5039 15.8108 82.525 15.4156C82.563 14.6992 82.5377 13.9786 82.5356 13.2602C82.5334 12.6474 82.1763 12.2564 81.6311 12.2607C81.0902 12.2628 80.7394 12.6558 80.7373 13.2707C80.7352 14.0336 80.7267 14.7986 80.7415 15.5614C80.7457 15.796 80.6823 15.8657 80.4435 15.8615C79.7546 15.8467 79.0658 15.8551 78.3769 15.8551C77.5443 15.8551 77.1449 16.1425 77.1386 16.7469C77.1301 17.3766 77.5189 17.6577 78.3938 17.6577C79.0679 17.6577 79.742 17.6682 80.414 17.6513C80.6633 17.645 80.7457 17.7126 80.7394 17.9704C80.7225 18.7332 80.7309 19.4982 80.7352 20.2611C80.7373 20.8802 81.0817 21.2542 81.6396 21.2521C82.1911 21.25 82.5292 20.8739 82.5334 20.2505C82.5377 19.8934 82.5356 19.5341 82.5356 19.1749Z" fill="#7A7A7A"/>
</svg>
