<svg width="97" height="102" viewBox="0 0 97 102" fill="none" xmlns="http://www.w3.org/2000/svg">
<path d="M61.4916 27.2598H35.6004C34.7424 27.2607 33.9197 27.6019 33.313 28.2084C32.7063 28.8148 32.365 29.6371 32.364 30.4948V38.8134C32.3652 39.3154 32.4827 39.8103 32.7073 40.2593C32.9319 40.7083 33.2575 41.0993 33.6586 41.4014L46.2343 50.8292L33.6586 60.257C33.2575 60.5592 32.9319 60.9501 32.7073 61.3991C32.4827 61.8481 32.3652 62.343 32.364 62.845V71.1636C32.365 72.0213 32.7063 72.8436 33.313 73.4501C33.9197 74.0565 34.7424 74.3977 35.6004 74.3986H61.4916C62.3497 74.3977 63.1723 74.0565 63.779 73.4501C64.3858 72.8436 64.727 72.0213 64.728 71.1636V62.928C64.7267 62.428 64.6101 61.9351 64.3873 61.4874C64.1645 61.0398 63.8414 60.6496 63.4432 60.3471L50.8462 50.8292L63.4432 41.3113C63.8414 41.0088 64.1645 40.6185 64.3874 40.1709C64.6102 39.7232 64.7268 39.2302 64.728 38.7302V30.4948C64.727 29.6371 64.3858 28.8148 63.779 28.2084C63.1723 27.6019 62.3497 27.2607 61.4916 27.2598ZM35.6004 30.0326H61.4916C61.6142 30.0328 61.7317 30.0816 61.8183 30.1682C61.905 30.2548 61.9538 30.3723 61.954 30.4948V34.6532H35.1381V30.4948C35.1383 30.3723 35.187 30.2548 35.2737 30.1682C35.3604 30.0816 35.4778 30.0328 35.6004 30.0326ZM61.954 62.928V71.1636C61.9538 71.2861 61.905 71.4036 61.8183 71.4902C61.7317 71.5768 61.6142 71.6256 61.4916 71.6258H35.6004C35.4778 71.6256 35.3604 71.5768 35.2737 71.4902C35.187 71.4036 35.1383 71.2861 35.1381 71.1636V62.845C35.1382 62.7733 35.155 62.7026 35.1871 62.6384C35.2192 62.5743 35.2657 62.5184 35.323 62.4753L48.5428 52.5646L61.7704 62.5592C61.8273 62.6024 61.8735 62.6581 61.9053 62.7221C61.9372 62.7861 61.9538 62.8565 61.954 62.928ZM61.7704 39.0993L48.5428 49.0936L35.323 39.1831C35.2657 39.14 35.2192 39.0841 35.1871 39.02C35.155 38.9558 35.1382 38.8851 35.1381 38.8134V37.4261H61.954V38.7305C61.9538 38.8019 61.9372 38.8723 61.9053 38.9363C61.8735 39.0003 61.8273 39.056 61.7704 39.0993Z" fill="#F58634"/>
<rect x="33.7711" y="64.5487" width="28.8462" height="3.51783" fill="#F58634"/>
<path d="M31.6214 81.1079C25.0913 76.9043 20.0382 70.7612 17.1817 63.5531C14.3434 56.4046 13.8707 48.5538 15.8332 41.1568C17.7882 33.8141 22.0938 27.3291 28.0964 22.686C34.0964 18.0442 40.8197 15.7541 48.5105 15.6438C49.3943 15.5951 52.8969 15.4775 57.1636 16.5176" stroke="#00A5C7" stroke-width="2" stroke-linecap="round" stroke-linejoin="round"/>
<path d="M52.1186 21.9241L59.0242 17.0989L54.1577 10.0769" stroke="#00A5C7" stroke-width="2" stroke-linecap="round" stroke-linejoin="round"/>
<path d="M65.6311 20.7076C72.1203 24.9669 77.1144 31.1527 79.9023 38.3844C82.6725 45.5564 83.0709 53.4102 81.0388 60.7894C79.0148 68.1143 74.6486 74.5614 68.6032 79.1522C62.5604 83.7417 55.8166 85.9737 48.1261 86.0177C47.242 86.0587 43.739 86.1462 39.4828 85.0695" stroke="#00A5C7" stroke-width="2" stroke-linecap="round" stroke-linejoin="round"/>
<path d="M44.5891 79.7041L37.6379 84.4694L42.438 91.5326" stroke="#00A5C7" stroke-width="2" stroke-linecap="round" stroke-linejoin="round"/>
</svg>
