<svg width="107" height="89" viewBox="0 0 107 89" fill="none" xmlns="http://www.w3.org/2000/svg">
<path d="M95.2814 65.5967C91.8307 65.6133 88.38 65.63 84.9272 65.6466C83.6077 65.6362 82.2861 65.5176 80.977 65.7861C80.669 65.4427 80.2653 65.6258 79.9135 65.6237C75.9883 65.6092 72.0651 65.6133 68.1399 65.6154C68.1295 62.7142 68.117 59.8129 68.1045 56.9117C68.1025 56.4621 68.1253 56.0105 68.0775 55.5651C68.0317 55.1447 67.7507 54.8658 67.3241 54.8408C66.8412 54.8138 66.5498 55.1051 66.4666 55.5651C66.4187 55.8336 66.4437 56.1166 66.4416 56.3913C66.4291 59.4653 66.4187 62.5393 66.4062 65.6133C65.1159 65.6217 63.8255 65.63 62.5351 65.6383C60.8368 64.4 57.0947 64.4 55.3944 65.6383C46.5491 65.6404 37.7059 65.6425 28.8606 65.6466C27.5411 65.6362 26.2195 65.5197 24.9104 65.7861C24.6023 65.4427 24.1986 65.6258 23.8448 65.6237C18.675 65.6092 13.5051 65.6154 8.33533 65.6154C8.33533 61.1845 8.33533 56.7556 8.33533 52.3246C14.9558 52.3246 21.5783 52.3246 28.1987 52.3246C28.2091 53.1883 28.2258 54.0499 28.232 54.9137C28.2404 56.3476 28.359 56.4746 29.7493 56.4788C30.5443 56.4808 31.3477 56.5558 32.1302 56.46C33.1063 56.3393 33.304 56.7472 33.2312 57.613C33.1604 58.4705 33.2395 59.3405 33.2083 60.2021C33.1771 61.0637 33.5142 61.4821 34.4154 61.4717C36.3843 61.4467 38.3531 61.4467 40.322 61.4717C41.2232 61.4841 41.5582 61.0637 41.5291 60.2021C41.4979 59.3051 41.5687 58.4039 41.5083 57.509C41.4563 56.7348 41.6353 56.3747 42.5031 56.4621C43.3231 56.5433 44.1598 56.4808 44.9881 56.4788C46.3784 56.4746 46.4991 56.3476 46.5054 54.9137C46.5095 54.0499 46.5262 53.1883 46.5387 52.3246C53.1612 52.3246 59.7837 52.3225 66.4042 52.3225C66.5998 53.1883 67.2616 53.1613 67.9443 53.1613C77.9259 53.155 87.9076 53.1571 97.8892 53.1571C99.6583 53.1571 99.6583 53.1571 99.6583 54.949C99.6583 57.2342 99.6583 57.2342 97.4189 57.3092C95.7268 57.3654 94.7216 58.3477 94.68 60.0314C94.6529 61.1366 94.6987 62.2417 94.6654 63.3469C94.6487 64.1669 94.8402 64.9099 95.2814 65.5967ZM73.8217 57.3092C73.1349 57.3092 72.446 57.3008 71.7592 57.3113C71.1993 57.3196 70.8081 57.5839 70.8247 58.1708C70.8393 58.6953 71.2077 58.9596 71.7238 58.9617C73.0308 58.97 74.3379 58.97 75.6428 58.9638C76.2047 58.9617 76.596 58.6828 76.5794 58.1042C76.5648 57.5881 76.1964 57.3196 75.6782 57.3133C75.0601 57.3029 74.4398 57.3092 73.8217 57.3092Z" fill="#F58633"/>
<path d="M0 87.6226C0.341324 87.4061 0.647267 87.1814 1.1093 87.1939C2.59115 87.2313 4.07716 87.2147 5.55901 87.2043C6.15216 87.2001 6.62044 87.3791 6.62044 88.0388C6.62044 88.6986 6.15216 88.8776 5.55901 88.8734C4.07508 88.863 2.59115 88.8464 1.1093 88.8838C0.647267 88.8942 0.341324 88.6695 0 88.453C0 88.1762 0 87.8994 0 87.6226Z" fill="#7A7A7A"/>
<path d="M8.33954 52.3226C8.33954 56.7536 8.33954 61.1825 8.33954 65.6134C8.32913 68.0693 8.28543 70.5252 8.31873 72.979C8.34578 74.9853 9.72565 76.3277 11.7299 76.4047C12.1441 76.4213 12.5645 76.3797 12.9745 76.4317C13.4448 76.4921 13.7133 76.8022 13.6904 77.2871C13.6696 77.72 13.4011 77.9635 12.9849 78.0593C9.82763 78.7773 6.66622 76.3839 6.65997 73.1579C6.63084 60.3916 6.635 47.6252 6.65581 34.8589C6.65997 31.9222 8.88691 29.9013 12.0046 29.8993C27.8158 29.8951 43.625 29.8889 59.4341 29.9201C60.3395 29.9222 60.7058 29.7203 60.9638 28.8004C61.7589 25.9511 64.3792 24.0759 67.3033 24.0863C70.2191 24.0968 72.829 25.9969 73.6095 28.8524C73.8551 29.7473 74.2297 29.9305 75.0705 29.9159C77.9759 29.866 80.8813 29.8785 83.7888 29.9013C87.2791 29.9284 90.0596 31.3811 91.7663 34.4239C94.9631 40.1223 98.0142 45.8999 101.136 51.6399C101.313 51.9667 101.33 52.2914 101.33 52.6389C101.328 59.455 101.338 66.269 101.323 73.0851C101.317 75.3953 99.7645 77.3537 97.6416 77.9011C97.0422 78.0551 96.5844 77.9802 96.3908 77.3787C96.2035 76.8022 96.5698 76.4567 97.0838 76.2965C99.1047 75.6638 99.7104 74.1611 99.675 72.2151C99.6459 70.5897 99.6292 68.9622 99.6875 67.3388C99.7125 66.6187 99.5335 66.3877 98.7884 66.4251C97.5584 66.4876 96.2701 66.6374 95.2836 65.5968C94.8444 64.91 94.653 64.167 94.6779 63.3449C94.7112 62.2397 94.6654 61.1346 94.6925 60.0294C94.7341 58.3457 95.7394 57.3613 97.4314 57.3072C99.6708 57.2343 99.6708 57.2343 99.6708 54.9471C99.6708 53.1551 99.6708 53.1551 97.9018 53.1551C87.9201 53.1551 77.9385 53.153 67.9568 53.1593C67.2742 53.1593 66.6123 53.1863 66.4167 52.3205C66.4271 47.6835 66.4396 43.0486 66.4479 38.4116C66.4521 35.606 67.1847 34.8797 70.0297 34.8797C76.2922 34.8797 82.5568 34.8818 88.8192 34.8734C89.1793 34.8734 89.5622 34.9858 89.8952 34.7902C89.9077 34.7236 89.9264 34.684 89.916 34.6632C89.864 34.5758 89.8078 34.4884 89.7454 34.4093C88.0741 32.351 85.8701 31.5497 83.2665 31.5497C59.6318 31.5622 35.9972 31.558 12.3626 31.558C12.1212 31.558 11.8777 31.5518 11.6362 31.5643C9.74022 31.6683 8.3437 32.9858 8.33329 34.8818C8.29375 40.6968 8.33121 46.5097 8.33954 52.3226ZM98.9237 51.4922C98.907 51.3507 98.9174 51.2778 98.8904 51.2258C96.3554 46.4993 93.8101 41.7769 91.2959 37.0379C91.017 36.5093 90.632 36.5405 90.1824 36.5405C83.2977 36.5426 76.4129 36.5405 69.5282 36.5447C68.3065 36.5447 68.1067 36.7549 68.1067 38.014C68.1025 42.1661 68.1379 46.3182 68.0796 50.4682C68.0671 51.3694 68.3398 51.513 69.1681 51.5109C78.7855 51.4797 88.403 51.4922 98.0225 51.4922C98.3201 51.4922 98.6177 51.4922 98.9237 51.4922ZM67.1701 29.8972C68.5895 29.8972 70.0089 29.8639 71.4263 29.9118C72.0881 29.9326 72.1776 29.712 72.0007 29.1459C71.4013 27.2228 69.345 25.7389 67.2513 25.7493C65.2012 25.7576 63.1658 27.2249 62.5685 29.0938C62.3583 29.7515 62.556 29.9346 63.2261 29.9118C64.5394 29.866 65.8548 29.8972 67.1701 29.8972ZM99.6646 61.9255C99.6646 61.6133 99.6646 61.3032 99.6646 60.991C99.6646 58.7099 99.6646 58.7183 97.3169 58.9659C96.6967 59.0305 96.3617 59.3343 96.3492 59.9545C96.3346 60.7163 96.3533 61.478 96.3408 62.2377C96.293 65.0536 96.293 64.7643 99.0818 64.7893C99.5272 64.7934 99.6937 64.6727 99.6729 64.2086C99.6396 63.451 99.6646 62.6872 99.6646 61.9255Z" fill="#7A7A7A"/>
<path d="M80.975 65.7841C82.2841 65.5177 83.6078 65.6363 84.9252 65.6447C85.8867 65.9714 86.8836 66.2191 87.8036 66.6374C95.9017 70.3108 97.115 81.0937 90.0596 86.5216C89.8244 86.7027 89.5893 86.8796 89.1605 87.2064C90.3718 87.2064 91.3542 87.2064 92.3386 87.2064C96.4553 87.2064 100.572 87.2064 104.687 87.2064C104.963 87.2064 105.242 87.1918 105.517 87.2188C105.996 87.2626 106.283 87.5435 106.293 88.0222C106.304 88.5051 106.023 88.7964 105.548 88.8547C105.24 88.8922 104.926 88.8714 104.616 88.8714C73.0683 88.8714 41.5208 88.8734 9.9733 88.8651C9.29482 88.8651 8.31663 89.1211 8.34369 88.0014C8.36658 86.9795 9.29274 87.2147 9.94625 87.2126C13.5052 87.2001 17.0662 87.2064 20.7937 87.2064C16.1359 83.637 14.2024 79.1582 16.0006 73.5555C17.3805 69.2577 20.5148 66.7373 24.9125 65.7841C26.2216 65.5177 27.5432 65.6363 28.8627 65.6447C28.9376 65.7009 29.0063 65.7903 29.0895 65.8091C33.993 66.8539 37.1877 69.8217 38.3032 74.6564C39.425 79.5099 37.7746 83.5517 33.8473 86.6444C33.6641 86.788 33.3165 86.8213 33.3374 87.1356C47.8166 87.1356 62.2729 87.1356 76.8291 87.1356C71.855 83.6079 70.7186 78.6316 71.7259 74.6315C72.9435 69.803 76.1049 66.8643 80.975 65.7841ZM27.0312 87.198C32.7942 86.9629 36.8963 82.688 36.9213 77.1768C36.9462 71.7448 32.3862 67.3055 27.0062 67.2847C21.622 67.2639 16.9413 71.8717 17.0558 77.2538C17.1786 82.9544 21.4576 87.0274 27.0312 87.198ZM83.0084 87.198C88.5632 87.0336 92.9421 82.9835 92.9692 77.2622C92.9942 71.8135 88.9108 67.4116 83.1541 67.3284C77.7303 67.2493 73.2119 71.3202 73.1433 77.1685C73.0787 82.6568 77.2246 86.9545 83.0084 87.198Z" fill="#7A7A7A"/>
<path d="M19.0705 14.9475C17.4783 14.9475 15.8862 14.9579 14.294 14.9455C11.6134 14.9226 9.40723 12.9995 9.15748 10.4833C8.90357 7.92541 10.6227 5.60691 13.2659 5.06786C13.8715 4.94507 14.0796 4.78273 14.2024 4.14795C14.679 1.69416 16.727 0.00835602 19.0829 3.10385e-05C21.4493 -0.00829394 23.4889 1.65878 23.9988 4.10633C24.1196 4.68283 24.2403 4.93674 24.9 5.0637C27.5911 5.58193 29.3435 7.96912 29.0438 10.5457C28.7524 13.0619 26.5525 14.9288 23.8469 14.9455C22.2548 14.9559 20.6626 14.9475 19.0705 14.9475Z" fill="#00A5C7"/>
<path d="M57.2946 14.9475C54.256 14.9475 51.2173 14.9475 48.1787 14.9475C47.9706 14.9475 47.7646 14.9433 47.5564 14.9475C46.955 14.9621 46.5096 14.7352 46.5325 14.0775C46.5512 13.4844 46.9716 13.2783 47.5315 13.2825C48.7053 13.2908 49.8791 13.2846 51.0529 13.2846C56.1291 13.2846 61.2052 13.2846 66.2814 13.2846C66.4895 13.2846 66.6956 13.2929 66.9037 13.2825C67.5093 13.2555 68.0713 13.3678 68.0817 14.1025C68.0921 14.8351 67.5468 14.9538 66.9307 14.9517C63.7173 14.9433 60.5059 14.9475 57.2946 14.9475Z" fill="#7A7A7A"/>
<path d="M49.9373 18.2692C52.8032 18.2692 55.6691 18.2734 58.535 18.2651C59.1677 18.263 59.7879 18.3171 59.7754 19.1267C59.7629 19.8614 59.1885 19.9363 58.5849 19.9363C52.7512 19.9301 46.9154 19.9301 41.0816 19.9363C40.4781 19.9363 39.9057 19.8593 39.8933 19.1267C39.8808 18.3171 40.501 18.2651 41.1337 18.2671C44.0682 18.2734 47.0028 18.2692 49.9373 18.2692Z" fill="#7A7A7A"/>
<path d="M35.6162 19.93C35.1355 19.93 34.6547 19.9321 34.1739 19.93C33.6078 19.9279 33.2332 19.6677 33.2395 19.0808C33.2457 18.5543 33.587 18.2775 34.1094 18.2733C35.175 18.265 36.2385 18.2671 37.3041 18.2712C37.8286 18.2733 38.172 18.5418 38.1866 19.0683C38.2011 19.6552 37.8328 19.9237 37.2646 19.93C36.7151 19.9341 36.1657 19.93 35.6162 19.93Z" fill="#7A7A7A"/>
<path d="M68.1399 65.6134C68.1295 69.0037 68.1274 72.3941 68.0941 75.7844C68.0899 76.2818 68.2107 76.465 68.7247 76.4192C69.3262 76.3651 69.7758 76.6294 69.7425 77.2871C69.7092 77.951 69.2076 78.0759 68.629 78.0759C59.5631 78.0696 50.4951 78.0696 41.4292 78.0759C40.8027 78.0759 40.272 77.9281 40.3053 77.1976C40.3407 76.4608 40.9214 76.4067 41.5166 76.4067C49.4753 76.413 57.436 76.3963 65.3947 76.4317C66.2522 76.4359 66.4832 76.2423 66.4645 75.3703C66.3958 72.1194 66.4187 68.8664 66.4083 65.6134C66.4187 62.5394 66.4312 59.4654 66.4437 56.3914C66.4458 56.1146 66.4208 55.8336 66.4687 55.5651C66.5498 55.1052 66.8433 54.8117 67.3261 54.8409C67.7528 54.8658 68.0337 55.1468 68.0795 55.5651C68.1274 56.0084 68.1045 56.4621 68.1066 56.9117C68.117 59.8109 68.1274 62.7121 68.1399 65.6134Z" fill="#7A7A7A"/>
<path d="M62.5392 65.6384C63.5486 67.5635 63.251 69.5969 62.8597 71.5678C62.662 72.5647 61.6775 73.0517 60.6224 73.0788C59.5214 73.1079 58.4162 73.1183 57.3153 73.0767C56.0624 73.0309 55.0571 72.2546 54.901 71.0787C54.7095 69.6468 54.7366 68.19 54.9052 66.7539C54.951 66.3689 55.2278 66.0088 55.3964 65.6384C57.0988 64.4 60.8388 64.4 62.5392 65.6384ZM59.0593 66.4417C56.3329 66.4147 56.4599 66.2981 56.4744 69.0245C56.4869 71.4263 56.4765 71.4159 58.9303 71.4305C61.5839 71.4471 61.4819 71.5491 61.4653 68.8955C61.4486 66.4417 61.4611 66.4417 59.0593 66.4417Z" fill="#7A7A7A"/>
<path d="M73.8219 57.3092C74.44 57.3092 75.0602 57.303 75.6783 57.3113C76.1966 57.3197 76.5649 57.5861 76.5795 58.1022C76.5962 58.6808 76.2049 58.9597 75.6429 58.9618C74.3359 58.968 73.0289 58.9701 71.724 58.9597C71.2078 58.9555 70.8415 58.6933 70.8249 58.1688C70.8082 57.5819 71.1974 57.3176 71.7593 57.3092C72.4461 57.3009 73.135 57.3092 73.8219 57.3092Z" fill="#7A7A7A"/>
<path d="M67.1701 29.8972C65.8547 29.8972 64.5394 29.866 63.2261 29.9097C62.556 29.9326 62.3582 29.7474 62.5685 29.0918C63.1658 27.2249 65.2012 25.7576 67.2513 25.7472C69.345 25.7389 71.4013 27.2207 72.0007 29.1438C72.1776 29.7099 72.086 29.9326 71.4262 29.9097C70.0089 29.8639 68.5895 29.8972 67.1701 29.8972Z" fill="#F58633"/>
<path d="M88.5571 39.8704C89.0025 39.8579 89.2439 40.141 89.4312 40.4864C90.5551 42.5718 91.6727 44.6614 92.7987 46.7447C93.0859 47.2755 93.1025 47.7583 92.526 48.0663C91.987 48.3535 91.5916 48.0538 91.3376 47.5897C90.1846 45.4814 89.0295 43.3731 87.914 41.2461C87.5373 40.526 87.8807 39.885 88.5571 39.8704Z" fill="#7A7A7A"/>
<path d="M33.6349 77.2309C33.6391 80.8939 30.64 83.8909 26.977 83.8826C23.3161 83.8742 20.3316 80.8627 20.3524 77.1976C20.3732 73.5825 23.3432 70.6146 26.9604 70.598C30.6233 70.5813 33.6307 73.57 33.6349 77.2309ZM31.9658 77.2663C31.9886 74.596 29.7409 72.3108 27.0457 72.2671C24.3859 72.2234 22.0861 74.4608 22.0195 77.1622C21.9529 79.8533 24.2756 82.2134 26.9916 82.2134C29.6701 82.2155 31.9429 79.9532 31.9658 77.2663Z" fill="#7A7A7A"/>
<path d="M89.6976 77.2705C89.683 80.9314 86.6652 83.9097 82.9981 83.8826C79.3413 83.8556 76.3734 80.8232 76.413 77.1581C76.4525 73.5451 79.4391 70.5959 83.0605 70.598C86.7235 70.6001 89.7122 73.6054 89.6976 77.2705ZM88.0284 77.1935C87.9868 74.5004 85.7057 72.2485 83.0334 72.2672C80.3507 72.2859 78.0863 74.5586 78.0822 77.2372C78.078 79.9511 80.436 82.2759 83.1292 82.2155C85.8285 82.151 88.068 79.8554 88.0284 77.1935Z" fill="#7A7A7A"/>
<path d="M82.0698 8.68088C82.0698 8.28336 82.0489 7.88584 82.076 7.49041C82.0989 7.16781 82.0177 7.05335 81.6702 7.06583C80.8772 7.09497 80.0822 7.07832 79.2892 7.07416C78.6586 7.07 78.2652 6.70786 78.2548 6.14592C78.2444 5.56734 78.6565 5.1719 79.2955 5.16566C80.0572 5.15941 80.821 5.14276 81.5807 5.17398C81.9595 5.18855 82.1031 5.11779 82.0802 4.69738C82.0406 3.93772 82.0656 3.1739 82.0698 2.41217C82.0739 1.76282 82.4506 1.34865 83.0292 1.35281C83.6016 1.35698 83.9741 1.77323 83.9762 2.42466C83.9803 3.23426 83.9866 4.04386 83.972 4.85347C83.9679 5.10114 84.0365 5.17606 84.2884 5.1719C85.0189 5.15525 85.7494 5.16566 86.4799 5.16566C87.3624 5.16566 87.7849 5.4716 87.7932 6.11262C87.8015 6.7807 87.3915 7.07832 86.4612 7.07832C85.7473 7.07832 85.0314 7.09081 84.3175 7.07208C84.0511 7.06583 83.9658 7.1366 83.972 7.41132C83.9907 8.22092 83.9824 9.03053 83.9783 9.84013C83.9741 10.4978 83.6099 10.8932 83.0188 10.8912C82.434 10.8891 82.076 10.4895 82.0718 9.82973C82.0677 9.44261 82.0698 9.06175 82.0698 8.68088Z" fill="#7A7A7A"/>
<path d="M90.0866 16.0796C90.0866 15.7113 90.0658 15.3408 90.0929 14.9745C90.1137 14.6748 90.0387 14.5687 89.7161 14.5791C88.9794 14.6061 88.2426 14.5916 87.5038 14.5853C86.919 14.5811 86.5526 14.2461 86.5443 13.7216C86.536 13.1846 86.9169 12.8163 87.51 12.8121C88.2176 12.8058 88.9274 12.7913 89.6329 12.8183C89.9846 12.8329 90.1178 12.7663 90.097 12.3771C90.0595 11.6716 90.0845 10.9619 90.0866 10.2542C90.0887 9.65068 90.4404 9.26565 90.9774 9.26981C91.5102 9.27189 91.8557 9.659 91.8577 10.2646C91.8598 11.016 91.8682 11.7694 91.8536 12.5207C91.8494 12.7517 91.9119 12.8204 92.147 12.8163C92.8255 12.8017 93.504 12.81 94.1825 12.81C95.0025 12.81 95.3959 13.0931 95.4021 13.6883C95.4104 14.3085 95.0275 14.5853 94.1658 14.5853C93.5019 14.5853 92.838 14.5957 92.1762 14.5791C91.9306 14.5728 91.8494 14.6394 91.8557 14.8933C91.8723 15.6447 91.864 16.3981 91.8598 17.1494C91.8577 17.7592 91.5185 18.1276 90.9691 18.1255C90.4258 18.1234 90.0928 17.753 90.0887 17.139C90.0845 16.7873 90.0866 16.4335 90.0866 16.0796Z" fill="#7A7A7A"/>
<path d="M37.4042 62.4832C36.5113 62.4832 35.6185 62.4853 34.7277 62.4832C33.5789 62.4811 33.2459 62.1564 33.2438 61.0305C33.2417 59.7817 33.2126 58.5309 33.2563 57.2842C33.2771 56.7285 33.1564 56.5225 32.5237 56.5475C31.175 56.5995 29.8222 56.5725 28.4715 56.56C27.4225 56.5516 27.0396 56.1749 27.0375 55.1697C27.0333 53.3881 27.0313 51.6066 27.0375 49.8271C27.0417 48.8302 27.4329 48.4681 28.4902 48.466C29.8659 48.4639 31.2416 48.4431 32.6152 48.4764C33.1085 48.4889 33.2708 48.3827 33.2563 47.8812C33.2167 46.518 33.2375 45.1527 33.2438 43.7874C33.2479 42.9132 33.6517 42.5178 34.5633 42.5136C36.4697 42.5032 38.3741 42.5053 40.2805 42.5136C41.242 42.5178 41.6416 42.9028 41.6458 43.8144C41.652 45.2026 41.6624 46.5908 41.6374 47.979C41.6312 48.3744 41.754 48.4806 42.1598 48.4743C43.5834 48.4514 45.007 48.4639 46.4285 48.466C47.4337 48.4681 47.8479 48.8448 47.852 49.7876C47.8604 51.592 47.8604 53.3965 47.852 55.2009C47.8479 56.1458 47.442 56.5225 46.4347 56.5267C45.0111 56.5329 43.5876 56.5412 42.1661 56.5204C41.7623 56.5142 41.6333 56.6182 41.6395 57.0158C41.6645 58.4039 41.652 59.7921 41.6479 61.1803C41.6437 62.1148 41.2649 62.4811 40.2992 62.4853C39.3356 62.4874 38.3699 62.4832 37.4042 62.4832ZM32.0741 54.4163C32.7006 54.4163 33.3291 54.4142 33.9556 54.4163C35.1481 54.4204 35.477 54.741 35.4811 55.9106C35.4853 57.1594 35.5144 58.4102 35.4666 59.6589C35.4457 60.2063 35.6393 60.3187 36.1596 60.2937C37.0025 60.2521 37.8496 60.2521 38.6925 60.2937C39.2357 60.3187 39.448 60.2021 39.423 59.6256C39.371 58.4248 39.4064 57.2197 39.4084 56.0168C39.4105 54.639 39.6936 54.3726 41.1588 54.3726C42.4366 54.3726 43.7166 54.358 44.9945 54.3809C45.4107 54.3892 45.6001 54.3185 45.5814 53.8585C45.5419 52.9573 45.5439 52.0541 45.5814 51.1529C45.6001 50.7117 45.4482 50.6118 45.0111 50.6201C43.6354 50.6471 42.2597 50.6367 40.8861 50.6263C39.7851 50.618 39.4188 50.26 39.4105 49.1965C39.4022 47.877 39.3918 46.5575 39.4188 45.2401C39.4272 44.8259 39.3273 44.6698 38.8631 44.6865C37.9245 44.7218 36.9817 44.7198 36.041 44.6865C35.5977 44.6719 35.4603 44.7905 35.4707 45.2255C35.4999 46.52 35.4853 47.8166 35.4811 49.1133C35.477 50.2954 35.1294 50.6222 33.8744 50.6263C32.5466 50.6305 31.2208 50.6409 29.893 50.6201C29.4788 50.6138 29.2894 50.6784 29.3081 51.1383C29.3477 52.0624 29.3373 52.9885 29.3123 53.9147C29.3019 54.2997 29.406 54.4433 29.8305 54.4246C30.5777 54.3934 31.3249 54.4163 32.0741 54.4163Z" fill="#7A7A7A"/>
</svg>
