<svg width="19" height="20" viewBox="0 0 19 20" fill="none" xmlns="http://www.w3.org/2000/svg">
<path d="M17.955 13.7556C16.6567 13.7556 15.4006 13.5333 14.2289 13.1333C13.8594 13 13.4478 13.1 13.1628 13.4L11.5056 15.5889C8.51833 14.0889 5.72111 11.2556 4.23278 8L6.29111 6.15556C6.57611 5.84444 6.66056 5.41111 6.54444 5.02222C6.15389 3.78889 5.95333 2.46667 5.95333 1.1C5.95333 0.5 5.47833 0 4.90833 0H1.25611C0.686111 0 0 0.266667 0 1.1C0 11.4222 8.15944 20 17.955 20C18.7044 20 19 19.3 19 18.6889V14.8556C19 14.2556 18.525 13.7556 17.955 13.7556Z" fill="#F7F7F7"/>
</svg>
