<svg width="77" height="78" viewBox="0 0 77 78" fill="none" xmlns="http://www.w3.org/2000/svg">
<path d="M47.1399 17.6927C47.1399 26.3419 40.0549 33.3854 31.2708 33.3854C22.4868 33.3854 15.4018 26.3419 15.4018 17.6927C15.4018 9.04348 22.4868 2 31.2708 2C40.0549 2 47.1399 9.04348 47.1399 17.6927ZM31.2708 44.0202C35.0405 44.0202 38.6288 43.2205 41.8726 41.8086H43.7792C53.0518 41.8086 60.5417 49.2529 60.5417 58.3859V64.1361C60.5417 66.6758 58.4544 68.7708 55.8408 68.7708H6.70089C4.08727 68.7708 2 66.6758 2 64.1361V58.3859C2 49.2529 9.48986 41.8086 18.7625 41.8086H20.6706C23.9233 43.2194 27.4985 44.0202 31.2708 44.0202Z" stroke="#00A5C7" stroke-width="4"/>
<path d="M62.4924 52.7722L62.8447 53.4725L63.6208 53.583L75.0872 55.2167L66.81 63.1279L66.2307 63.6816L66.3689 64.4709L68.3302 75.6753L58.0259 70.3642L57.3386 70.01L56.6514 70.3642L46.347 75.6753L48.3084 64.4709L48.4466 63.6816L47.8673 63.1279L39.5901 55.2167L51.0565 53.583L51.8325 53.4725L52.1848 52.7722L57.3386 42.5294L62.4924 52.7722Z" fill="white" stroke="#F58634" stroke-width="3"/>
</svg>
