<svg width="25" height="25" viewBox="0 0 25 25" fill="none" xmlns="http://www.w3.org/2000/svg">
<path d="M21.3872 24.9999C21.0616 24.8739 20.7125 24.8726 20.3752 24.8152C17.6529 24.3479 15.1054 23.3971 12.7414 21.985C8.18288 19.2612 4.64493 15.5591 2.23323 10.813C1.14287 8.66672 0.419882 6.39774 0.0936237 4.00804C0.0616504 3.77507 0.0244569 3.54211 0.00422888 3.30783C-0.0323121 2.87453 0.169316 2.57957 0.556258 2.39815C2.08837 1.67902 3.61983 0.958589 5.15128 0.237501C5.36335 0.137658 5.56759 0.00844989 5.81359 0.0208487C6.12484 0.0365103 6.37214 0.172897 6.5431 0.438492C7.55776 2.0151 8.57504 3.58974 9.58579 5.16896C9.84027 5.56637 9.7848 5.97162 9.44223 6.31748C8.85236 6.91262 8.2677 7.51298 7.66152 8.09181C7.34309 8.39591 7.27066 8.73851 7.34439 9.15289C7.6191 10.6936 8.26966 12.0679 9.20276 13.3084C10.389 14.8857 11.8539 16.1347 13.6562 16.9674C14.3798 17.3022 15.1354 17.5358 15.9217 17.6702C16.2995 17.7348 16.6167 17.6408 16.8927 17.3544C17.4688 16.7573 18.062 16.1765 18.6499 15.5911C19.0434 15.1989 19.427 15.1552 19.8949 15.4554C21.4309 16.4414 22.9624 17.4346 24.503 18.4148C24.7659 18.5818 24.8912 18.8239 24.9995 19.0915C24.9995 19.1731 24.9995 19.254 24.9995 19.3356C24.9402 19.4648 24.8808 19.594 24.8201 19.7225C24.1141 21.2247 23.4028 22.725 22.7053 24.2318C22.5513 24.5639 22.3673 24.8485 22.0215 24.9999C21.81 24.9999 21.5986 24.9999 21.3872 24.9999Z" fill="white"/>
<path d="M25.0002 12.7441C24.9245 12.7689 24.9375 12.8485 24.9082 12.9007C24.7274 13.2263 24.3516 13.4241 24.0142 13.3621C23.6077 13.2877 23.3219 12.996 23.2834 12.5933C23.2319 12.0595 23.2364 11.5231 23.1601 10.99C22.8919 9.11906 22.1898 7.43087 21.0329 5.94236C19.2887 3.69818 16.9984 2.34867 14.2004 1.86185C13.6151 1.76005 13.0193 1.75744 12.4275 1.71894C12.0477 1.6948 11.7939 1.47618 11.6771 1.12119C11.4911 0.558674 11.9055 0.00203391 12.5045 7.62012e-05C14.6408 -0.00710205 16.6558 0.492765 18.5122 1.54405C21.904 3.46586 23.9953 6.35348 24.7881 10.1736C24.8703 10.5704 24.9278 10.973 24.9506 11.3796C24.9525 11.4181 24.9447 11.4624 24.9995 11.4742C25.0002 11.8977 25.0002 12.3206 25.0002 12.7441Z" fill="white"/>
<path d="M20.6943 12.2148C20.706 12.8458 20.4998 13.1943 20.1012 13.3242C19.5132 13.5154 18.9612 13.0977 18.9553 12.4373C18.9468 11.5061 18.7635 10.6121 18.3531 9.78072C17.3123 7.67097 15.6281 6.42913 13.2882 6.09306C13.0285 6.05586 12.7695 6.05913 12.5104 6.04542C12.0002 6.01932 11.6184 5.63235 11.6289 5.15728C11.64 4.66394 12.0367 4.30046 12.5639 4.30176C16.4138 4.31285 19.7932 7.11237 20.5429 10.9155C20.6336 11.3776 20.6767 11.8474 20.6943 12.2148Z" fill="white"/>
</svg>
